 <svg height="100%" viewBox="0 0 1673 1628" xmlns="http://www.w3.org/2000/svg" fill-rule="evenodd" clip-rule="evenodd" stroke-linejoin="round" stroke-miterlimit="2"><path fill="none" d="M0 0h1672.53v1627.14H0z" /><clipPath id="a"><path d="M0 0h1672.53v1627.14H0z" /></clipPath><g clip-path="url(#a)"><clipPath id="b"><path d="M-138.185.46h2309.36v1632.72h-2309.36z" /></clipPath><g clip-path="url(#b)" fill-rule="nonzero"><path d="M855.346 1470.29c-8.921 0-18.363-.512-29.713-1.608-24.816-2.4-48.995-7.379-71.854-14.796-15.075-4.891-29.441-11.587-42.729-19.916-20.021-10.105-42.554-21.517-55.754-34.188l-8.058-7.733 8.604-7.125c3.012-2.496 6.821-3.813 11.004-3.813 5.454 0 10.4 2.209 13.362 3.529.113.046.213.088.313.138 6.3.792 11.729 2.817 16.546 4.604 4.195 1.563 8.162 3.038 12.266 3.554 7.617.95 15.292 1.434 22.8 1.434 25.534 0 50.834-5.596 75.196-16.629 12.725-5.767 23.804-16.042 33.859-31.417 1.608-2.463 3.154-4.958 4.8-7.608l7.295-11.671 7.617 4.154c-3.525-6.229-6.487-12.717-9.287-19.225a45.107 45.107 0 01-.413 4.767l-.737 5.22-4.746 2.325c-31.696 15.538-66.521 27.75-103.504 36.321-7.363 1.7-15.392 2.504-25.271 2.504-2.705 0-5.404-.066-8.092-.141l-7.683-.213c-16.8-.45-34.175-.912-51.575-3.371-8.042-1.137-15.984-2.741-23.659-4.283-10.237-2.062-19.9-4.013-29.812-4.967-7.517-.729-14.421-3.02-21.096-5.241-3.542-1.163-6.887-2.284-10.187-3.117-41.263-10.446-78.492-30.238-116.171-51.325-27.484-15.383-52.813-36.521-79.721-66.521a1052.664 1052.664 0 00-8.504-9.35c-12.488-13.654-25.413-27.762-35.604-44.321-1.4-1.866-5.313-7.116-2.505-15.012l2.58-7.246 7.658.658c7.604.659 14.242.971 20.287.971 28.442 0 48.584-7.254 65.288-23.529 24.429-23.788 42.646-44.667 36.871-78.379l-1.6-9.317 9.225-2.079c6.116-1.379 12.212-2.704 18.287-4.025 13.579-2.946 26.4-5.729 39.304-9.088 33.471-8.712 67.396-18.12 100.2-27.225l2.817-.774c4.396-1.221 8.763-2.546 13.133-3.871 13.259-4.017 26.98-8.171 41.663-9.542 5.162-.487 10.417-2.35 15.987-4.325 5.575-1.975 11.342-4.025 17.78-5.008l10.316-1.563c11.175-1.675 22.738-3.408 33.896-5.592 21.579-4.224 43.646-6.274 67.471-6.274 25.221 0 52.271 2.366 82.704 7.225 30.921 4.937 59.717 15.72 85.583 32.041 11.88 7.492 23.363 16.833 33.2 27.021 3.4 3.521 6.95 6.85 10.709 10.383 6.5 6.092 13.221 12.4 19.191 19.825 2.371 2.938 4.571 5.98 6.763 9.009 2.662 3.687 5.183 7.175 7.912 10.3l2.505 2.879-.055 3.821c-.129 8.2.563 16.641 2.105 25.808 4.616 27.55 2.829 55.142.466 78.5-1.696 16.767-4.087 36.488-8.937 55.55-6.388 25.108-14.792 54.692-28.692 83.829-11.762 24.663-24.454 45.854-38.808 64.775-23.271 30.692-46.871 51.45-74.267 65.342-20.104 10.192-41.879 14.941-68.529 14.941z" fill="#fff" /><path d="M363.013 1518.81c-3.671 6.841-3.413 13.545-3.246 20.32.391 16.663.175 33.313-.867 49.975-1.196 19.134-5.746 37.721-9.392 56.375-2.929 15.021-3.525 30.888-11.562 44.725-1.546 2.667-2.379 5.942-1.492 9.238.738 2.746 1.671 5.383 4.729 6.387 3.071 1.004 5.367-.341 7.375-2.55 3.275-3.6 5.446-7.8 6.879-12.412 5.055-16.271 11.901-31.883 16.734-48.288 7.116-24.183 12.271-48.566 12.012-73.779-.15-14.287-2.57-28.479-6.4-42.254-2.391-8.604-4.087-9.054-14.77-7.737zm-129.205 373.412c7.042 3.517 11.08-1.467 14.809-4.908 18.65-17.184 38.95-32.292 58.933-47.804 18.821-14.617 37.362-29.613 56.592-43.671 16.929-12.388 34.987-23.225 51.904-35.634 17.904-13.121 36.229-25.55 54.954-37.433 29.458-18.688 59.271-36.833 87.654-57.175 3.867-2.771 8.259-4.871 11.388-8.587 3.55-4.225 5.883-9.096 1.991-14.017-3.875-4.892-8.6-2.246-12.891.025-2.113 1.112-4.142 2.367-6.204 3.566-18.521 10.759-37.7 20.342-56.45 30.667-37.521 20.663-75.18 40.896-110.771 64.888-28.775 19.4-54.242 42.637-80.079 65.504-24.792 21.937-44.471 48.504-66.138 73.275-2.571 2.937-5.612 5.716-5.692 11.304zm758.613-476.088c14.246 3.196 23.512 17.138 35.296 24.334 18.704 11.412 35.746 25.154 53.296 38.108 13.625 10.054 27.774 19.575 39.829 31.892 9.629 9.841 21.958 16.754 32.058 26.379 12.646 12.054 27.713 21.825 39.429 34.467 21.292 22.975 46.884 41.741 65.75 66.862 12.696 16.904 30.134 29.604 41.563 47.304 13.875 21.5 34.246 37.496 48.108 58.925 4.083 6.325 8.1 12.721 12.233 19.017 9.817 14.962 21.809 28.221 31.946 42.954 12.042 17.517 18.842 37.754 30.554 55.246 13.779 20.583 24.163 43.079 33.296 65.654 10.217 25.259 24.292 48.254 36.779 72.075 12.367 23.584 24.234 47.408 36.25 71.154 9.863 19.5 18.313 39.709 28.05 59.279 8.479 17.034 17.554 33.809 26.967 50.355 12.75 22.4 26.3 44.329 40.85 65.629 13.867 20.316 28.446 40.192 41.367 61.092 12.116 19.587 26.641 37.591 37.375 58.05 3.32 6.329 7.171 12.429 11.271 18.287 27.454 39.229 33.466 82.342 23.624 128.392-3.079 14.366-5.704 28.887-12.608 42.112-4.771 3.413-8.504 7.792-11.817 12.571-8.954 4.758-14.77 13.058-21.841 19.85-17.613 16.913-38.288 28.904-59.888 39.633-.116-3.216-1.216-5.629-4.991-4.837-2.7.571-5.313 1.579-7.925 2.508-27.721 9.834-56.238 13.959-85.463 10.167-21.3-2.763-36.683-15.425-49.575-31.7 4.171-8.817 7.483-16.946 11.721-24.571 11.704-21.017 11.271-43.338 7.925-66.083-.342-2.329-1.029-4.805-.596-7.025 1.967-10.15-.683-19.863-2.825-29.505-2-8.975-3.137-17.925-3.862-27.083-1.217-15.408-.538-31.366-5.846-45.95-4.754-13.05-9.371-26.071-13.567-39.333-12.437-39.283-25.812-78.271-44.3-115.259-.667-1.329-.683-3.062-.716-4.62-.213-10.638-4.384-20.225-8.542-29.63-8.85-19.987-16.758-40.599-21.463-61.666-5.387-24.109-16.637-46.121-21.216-70.55-2.875-15.309-8.609-30.421-12.509-45.825-8.887-35.075-20.983-69.138-35.104-102.454-6.816-16.075-12.462-33.004-21.65-47.659-21.196-33.846-52.162-56.925-89.925-68.929-17.092-5.437-34.675-11.196-53.046-12.292-8.72-.525-17.479-.916-26.116-2.108-12.421-1.721-24.588-.771-36.7 2.017-20.046 4.616-40.092 9.258-60.146 13.887-7.738-2.904-11.038-10.725-17.113-15.475 1.013-2.979 1.688-6.129 3.092-8.908 6.15-12.129 9.717-25.2 14.171-37.946 2.092-5.983 1.958-10.912-5.35-12.216-4.579 2.383-5.379 6.512-7.134 10.016-8.524 17.025-15.854 34.604-26.654 50.513-12.496 18.412-25.754 36.32-37.195 55.454-3.242 5.412-7.221 10.183-12.917 13.733-14.183 8.825-27.458 18.959-39.863 30.179-2.833 2.559-5.308 5.68-10.295 6.817 0-5.133-.646-9.496.108-13.604 3.708-20.167 2.733-40.517 1.979-60.75-.462-12.633 2.233-25.379-.521-37.813-5.958-26.941-18.971-50.612-36.529-71.55-6.775-8.083-14.975-15.112-24.037-21.212-11.309-7.604-24.713-8.613-36.505-14.075-16.825-7.8-34.054-9.388-52.175-6.904-12.575 1.725-25.32 2.183-37.946 3.562-18.549 2.029-36.979 4.575-55.141 9.317-12.075 3.15-22.5 10.191-34.504 13.066-29.717 7.117-56.367 21.959-82.604 36.246-25.996 14.155-52.896 26.684-78.159 42.655-27.521 17.399-53.746 36.766-81.75 53.379-3.066 1.82-5.958 4-8.737 6.241-16.063 12.988-31.734 26.496-50.309 36.013-3.845 1.967-7.85 4.429-10.52 7.692-6.496 7.937-15.03 12.95-23.525 18.058-9.23 5.55-17.992 11.596-26.038 18.837-8.537 7.692-17.687 14.705-25.3 20.963-16.846 1.733-31.267-2.834-45.704-6.654-11.096-2.925-22.508-5.834-32.583-11.059-10.105-5.233-20.542-8.337-31.375-10.721-5.525-1.216-10.646-2.92-15.292-6.262-7.863-5.663-9.45-10.958-5.063-19.163a59.76 59.76 0 015.138-8.037c8.196-10.704 17.821-20.238 24.479-32.225 3.004-5.413 7.717-10.333 12.696-14.1 17.55-13.267 31.775-30.033 47.946-44.742 6.696-6.087 14.429-12.804 13.65-23.1-2.084-2.983-4.829-2.45-6.917-3.475.679-1.404 1.046-3.12 2.092-4.166 24.587-24.625 42.146-54.492 62.008-82.663 7.996-11.346 17.221-21.867 23.992-34.054 16.108-28.967 23.558-59.604 17.304-92.8-6.571-34.8-14.333-69.442-29.538-101.492-12.208-25.741-26.154-50.662-45.591-72.312-12.396-13.792-22.263-29.929-32.634-45.433-5.637-8.421-12.27-15.971-20.191-21.771-16.771-12.288-31.859-26.159-45.959-41.404-17.266-18.675-37.683-34.205-54.47-53.43-8.617-9.866-17.755-19.183-23.892-31.095-3.217-6.234-10.129-10.725-12.733-17.084-7.209-17.592-19.538-32.521-24.934-51.108-3.4-11.717-9.287-22.75-14.479-33.896-3.587-7.683-6.05-15.563-6.479-24.004-.242-4.763-.804-9.446-1.504-14.179-4.288-29.088-6.25-58.696.121-87.279 5.979-26.876 13.995-53.638 30.491-76.955 10.996-15.55 22.563-30.75 32.3-47.216 11.671-19.713 28.846-34.767 44.334-51.284 11.983-12.771 25.912-23.412 37.637-36.391 5.608-6.205 12.033-11.463 19.142-16.054 11.462-7.409 19.25-18.859 29.191-28.017 22.238-20.483 45.696-39.321 70.45-56.683 16.842-11.805 32.73-24.971 49.317-37.155 20.163-14.816 39.025-31.312 57.129-48.37 13.742-12.946 29.517-24.355 39.479-41.121 1.6-2.688 4.021-4.913 6.163-7.254 20.108-21.955 39.683-44.417 60.529-65.646 16.338-16.638 34.567-31.405 51.354-47.621 12.629-12.196 26.171-23.429 40.25-33.563 17.6-12.662 34.025-27.341 54.3-36.171 9.946-4.324 19.75-7.97 30.929-7.591 7.067.237 14.367-.508 21.275-2.092 23.238-5.329 44.988-.517 66.271 8.55 7.559 5.725 15.117 11.45 22.675 17.179.429 3.863 3.154 6.079 5.642 8.734 11.287 12.033 25.917 21.358 31.267 38.337.624 1.992 4.025 3.042 5.65 4.767 10.541 11.166 19.337 21.637 28.041 35.416 1.179 1.867 1.913 4.059 3.283 5.467 14.738 15.113 27.759 31.584 38.98 49.467-.734 3.929 2.816 7.279 5.737 10.971 4.179 5.262 9.054 9.121 12.767 14.745 19.808 30.021 24.487 65.067 24.25 99.838-.1 14.337-4.738 31.008-9.5 45.1-6.8 20.108-11.683 39.238-27.088 54.596-8.108 8.079-16.725 17.383-23.683 26.517-6.733 8.849-9.992 10.791.763 15.508.224 4.458-3.488 6.071-6.292 7.921-26.954 17.791-49.571 41.158-75.804 59.67-25.184 17.767-46.788 39.346-70.138 59.042-20.091 16.946-36.625 37.6-57.796 53.263-1.837 1.358-3.129 3.554-4.429 5.516-6.416 9.675-13.921 18.354-22.912 25.717-4.646 3.8-9.029 7.825-11.796 13.275-12.767 4.342-22.629 10.813-35.408 15.067-17.705 5.9-34.838 8.525-52.375 14.183-27.321 8.813-52.975 12.8-81.117 13.421-8.325.187-22.521 4.412-31.013 3.029-21.125-3.45-38.845-3.142-59.941-7.183-2.309-.446-9.229-.425-11.534 0-10.025 1.846-18.045 3.441-26.845 10.204-25.596 19.671-34.525 40.341-31.571 71.666 2.183 23.271 14.75 40.167 27.216 59.563 24.963 38.817 49.467 72.604 84.15 103.425 25.425 22.6 51.288 37.817 81.867 52.188 22.583 10.616 45.321 21.699 69.396 28.741 21.271 6.217 44.216 16.208 66.558 19.667 18.35 22.212 36.784 45.271 61.996 61.075 28.263 17.704 58.983 27.246 90.217 36.675 27.391 8.275 53.291 15.237 82.629 14.937 30.029-.3 55.9-7.275 82.433-20.608 21.871-10.983 42.775-26.546 61.267-42.163z" fill="#ee5622" /><path d="M796.017 1375.36c19.579-9.675 31.837-24.071 41.879-40.88-7.35 4.634-14.767 9.054-22.771 12.13-9.117 3.487-13.621 10.191-15.758 19.195-.621 2.609-1.767 5.1-3.35 9.555zm-123.038 24.695c12.229 11.742 28.934 16.38 42.971 25.23 12.746 8.037 26.433 14.429 40.9 19.12 22.733 7.379 45.958 12.059 69.742 14.359 31.908 3.087 62.937 2.829 92.779-12.304 29.262-14.834 51.637-37.155 70.833-62.471 14.742-19.442 27.075-40.646 37.759-63.046 12.62-26.467 20.895-53.975 28.029-82 4.5-17.679 6.837-35.888 8.679-54.1 2.562-25.304 3.85-50.629-.383-75.842-1.53-9.075-2.388-18.1-2.238-27.616-5.333-6.117-9.704-13.121-14.925-19.617-8.796-10.938-19.683-19.567-29.3-29.525-9.313-9.638-20.017-18.367-31.354-25.525-25.038-15.796-52.621-25.959-81.846-30.625-48.775-7.792-97.696-10.596-146.683-1.013-14.78 2.896-29.729 4.93-44.617 7.221-11.825 1.817-22.379 8.292-34.354 9.413-18.354 1.712-35.496 8.22-53.063 13.087-34.341 9.525-68.679 19.071-103.166 28.046-19.029 4.954-38.354 8.775-57.913 13.188 6.629 38.683-14.962 63.062-39.733 87.195-27.017 26.309-59.554 28.255-93.379 25.35-1.259 3.542.625 4.871 1.6 6.455 11.946 19.391 27.958 35.42 43.05 52.241 22.625 25.234 47.141 47.679 77.166 64.483 36.446 20.4 72.946 40.034 113.75 50.355 9.992 2.529 19.7 7.129 29.8 8.1 18.242 1.758 35.825 6.745 53.905 9.304 19.408 2.746 38.77 2.921 58.158 3.496 10.192.291 20.542.262 30.821-2.117 35.208-8.158 69.129-19.758 101.375-35.558 1.633-11.542-3.009-22.854.104-34.221 8.075.558 10.275 5.662 12.512 10.804 9.58 22.108 17.105 45.525 38.38 60.2 3.07 2.121 3.749 4.971.858 9.642-16.842 2.316-23.775-14.605-36.45-21.5-2.592 4.15-4.846 7.866-7.225 11.504-9.738 14.887-21.967 27.737-38.079 35.033-32.767 14.846-67.225 20.533-103.342 16.008-10.687-1.337-20.804-4.412-31.467-5.558-3.483-1.796-7.216-3.254-10.704-5.058 1.913 3.654 3.846 5.966 7.05 7.862zm319.367 18.842c-18.492 15.621-36.529 31.904-58.392 42.896-26.533 13.333-54.354 21.691-84.387 21.996-29.334.295-58.146-5.455-85.538-13.725-31.229-9.438-61.583-22.509-89.837-40.217-25.217-15.8-44.142-37.192-62.496-59.408-22.342-3.45-42.975-11.892-64.25-18.109a485.23 485.23 0 01-70.138-26.575c-30.583-14.371-58.779-32.883-84.208-55.483-34.679-30.821-63.883-66.321-88.842-105.142-12.475-19.391-21.008-41.25-23.2-64.529-2.945-31.316 6.967-57.933 32.559-77.6 8.804-6.762 19.662-5.408 29.691-7.254 2.3-.425 4.825-.283 7.142.158 21.088 4.046 42.679 3.367 63.804 6.817 8.492 1.392 16.584-1.033 24.904-1.221 28.146-.621 55.905-3.133 83.225-11.95 17.538-5.658 36.013-8.683 53.721-14.587 12.779-4.25 25.625-8.375 38.392-12.717 10.225 1.117 19.762-2.792 29.129-5.413 35.254-9.866 71.254-15.812 107.171-22.333 12.896-2.337 26.029-1.354 39.075-2.925 19.642-2.367 39.85-4.1 59.404-2.112 23.508 2.391 47.321 2.096 70.613 8.904 20.679 6.046 41.875 10.883 64.375 8.462 15.216-1.637 30.533 4.479 45.904 6.409 21.066 2.646 42.008 9.016 63.441 2.471 20.717 3.962 37.313-8.53 55.392-14.555 7.033-2.341 12.617-9.279 18.637-14.391 19.046-16.15 30.005-37.892 39.592-60.113 14.679-34.008 22.492-70.058 29.759-106.283 6.387-31.888 12.9-63.846 23.925-94.588 6.291-17.533 15.904-32.821 31.637-43.591 4.925-3.367 8.471-8.267 13.538-11.6 19.029-12.513 39.962-16.567 62.304-15.05 2.783.191 5.587.704 8.337.5 32.871-2.475 54.492 15.416 69.158 41.55 15.784 28.129 25.28 59.112 31.767 90.758 4.342 21.133 3.854 42.462 1.663 64.004-3.421 33.733-12.959 65.65-28.854 95.15-15.388 28.584-31.7 57.021-53.588 81.354-15.675 17.425-34.154 32.046-51.808 47.48-14.809 12.937-31.196 22.991-48.054 32.754-10.221 5.916-21.892 7.112-32.205 12.2-2.721 1.341-6.387 1.225-8.533 5.446 2.871.945 5.579 2.337 8.417 2.7 27.379 3.495 54.629 2.679 81.354-4.496 35.65-9.571 70.446-21.825 105.1-34.513 12.996-4.754 26.354-8.55 39.662-12.396 8.817-2.55 17.43-5.512 25.55-9.75 9.605-5.004 19.888-8.075 30.338-10.408 12.016-2.671 24.104-5.346 36.312-6.725 28.096-3.183 48.9 9.417 64.584 31.821 19.396 27.721 20.087 58.883 15.046 90.441-6.405 40.096-23.105 75.967-50.125 106.321-15.284 17.167-33.571 31.275-51.93 45.25-18.8 14.304-41.17 19.979-62.454 28.188-9.471 3.654-20.087 4.921-30.312 5.879-19.296 1.808-38.709 2.771-58.021 3.983-34.896 2.196-67.888-5.746-100.746-13.966-36.296-9.084-70.675-23.696-101.467-45.863-14.795-10.658-30.27-20.425-45.795-30.008-22.255-13.738-40.313-32.146-58.038-50.934-7.579-8.02-11.488-18.716-19.367-29.275-1.933 10.401.229 18.951-.8 27.355-1.437 11.8-3.25 23.829-2.416 35.583 1.604 22.529-5.821 43.212-11.363 64.204-2.812 10.671-6.562 21.238-9.742 31.875-3.587 11.992-9 22.925-16.458 32.879-6.929 9.25-10.392 20.35-16.712 30.1-10.234 15.805-22.75 29.513-34.546 43.917zM863.663 757.842c-10.755-4.713-11.855-7.517-5.117-16.371 6.95-9.138 13.896-18.45 21.996-26.529 15.4-15.354 23.904-34.213 30.7-54.317 4.766-14.096 7.066-28.933 7.162-43.271.234-34.779-5.146-68.783-24.958-98.808-3.708-5.629-7.109-11.504-11.288-16.767-2.925-3.687-2.479-7.279-1.741-11.208 5.075-1.283 10.116-2.229 14.571.475 6.5 10.971 15.045 19.729 22.687 29.637 4.875-3.27 7.312-7.866 10.083-12.129 17.367-26.692 35.796-52.437 61.738-71.796 3.454-2.575 6.425-5.962 9.121-9.366 4.787-6.05 10.512-11.121 17.279-14.446 17.883-8.779 34.446-19.667 50.829-30.838 21.171-14.437 38.942-31.395 42.275-58.887 1.038-8.529 4.717-16.784 2.367-25.667-6.313-1.346-11.234.463-15.521 4.625-12.267 11.896-25.275 21.167-42.625 26.371-17.158 5.142-34.417 9.804-51.879 12.308-16.325 2.346-31.688 5.821-46.517 13.109-19.033 9.35-35.667 20.616-42.437 42.104-1.046 3.325-3.192 5.662-6.892 5.487-4.088-.187-7.113-3.07-7.658-6.533-2.238-14.429-5.955-29.388 6.429-41.5 8.525-8.342 16.679-17.358 26.341-24.163 12.205-8.6 24.875-17.566 41.346-15.941 2.746.271 5.479-.458 8.034-1.838 8.287-4.458 17.275-5.608 26.562-5.466 8.808.137 17.158-1.963 25.729-5.625 3.259-20.909 7.438-41.571 9.384-62.45 1.233-13.259 3.875-26.33 2.32-40.238-1.687-15.121-.887-30.466-5.754-45.275-1.071-3.262-.254-7.121-.475-10.696-.146-2.35-.112-4.883-.975-7-9.479-23.071-17.454-46.825-29.316-68.82-7.459-13.834-14.846-28.805-35.325-26.213-6.117 15.55-1.738 31.333.02 46.892 2.038 18.058 6.509 35.879 8.017 53.962 1.725 20.546 2.325 41.258 3.625 61.821 1.104 17.563-3.187 32.788-9.517 48.125-4.037 1.271-7.483 3.65-11.287 2.333-3.613-2.2-4.288-5.121-3.229-8.483 5.27-16.813 2.816-34.254 1.204-50.85-2.838-29.2-3.413-58.533-6.792-87.717-2.708-23.354-8.3-45.125-19.362-65.6-5.838-10.787-16.129-15.2-27.346-19.054-10.988 18.838-9.383 37.642-6.292 56.538 3.004 18.362 9.458 35.954 10.767 54.816.987 14.188 1.671 28.73 4.308 42.504 4.684 24.584-2.266 47.225-6.562 70.492-1.138 6.188-4.392 9.992-10.529 10.358-5.363-1.937-5.117-5.916-5.088-10.016.104-11.913-.442-23.754-1.6-35.658-1.025-10.555-2.196-21.459 1.021-32.017.725-2.367.962-4.709.125-7.021-7.159-19.792-6.108-40.758-8.321-61.196-2.058-19.067-6.833-36.475-19.354-51.371-3.375-4.021-6.692-7.666-11.304-8.683-5.921 2.313-8.8 6.642-9.109 11.3-1.166 17.787-2.758 35.55.567 53.417 3.629 19.496 7.3 39.233 3.408 59.121-2.654 13.575-6.029 27.066-9.958 40.333-8.375 28.279-20.517 55.162-33.983 81.237-9.971 19.309-21.925 37.788-38.013 52.996-7.558-5.725-15.116-11.45-22.671-17.175 4.663-6.583 12.171-10.241 17.163-16.396 13.1-16.129 22.417-34.416 30.179-53.629 5.504-13.591 11.763-26.875 17.671-40.304.967-2.183 2.417-4.287 2.792-6.567 4.187-25.321 11.724-49.991 10.625-76.287-1.088-26.092-2.063-52.425 4.075-78.271 1.295-5.454 2.779-10.817 5.333-15.775 7.15-13.912 18.746-17.742 32.825-10.729 4.575 2.275 8.8 5.229 14.083 8.417 3.088-9.684 7.229-18.396 11.646-27.042 5.892-11.517 15.3-16.683 27.533-12.975 12.867 3.9 21.688 12.817 29.142 23.441.913 1.301 1.908 2.542 3.171 4.217 5.271-2.737 7.033-10.2 13.442-10.812 11.695-1.113 23.383-3.605 34.991 1.712 14.175 6.5 22.759 17.979 30.392 30.834 12.654 21.291 22.158 44.029 28.9 67.637 4.421 15.471 8.262 31.563 6.187 48.146-.237 1.921-.562 4.287.288 5.829 5.662 10.358 3.687 20.95.975 31.383-1.842 7.1-1.429 14.159-1.584 21.296-.524 24.375-4.491 48.096-14.962 70.442 5.617 2.637 9.092.354 12.417-2.729 9.525-8.813 21.425-14.046 32.987-18.8 20.55-8.45 39.638 3.596 42.234 23.096 1.279 9.658.308 19.062-2.284 28.337-8.154 29.088-21.941 54.238-48.291 71.179-12.005 7.717-23.626 16.017-35.909 23.371-21.917 13.125-40.012 31.142-59.425 47.487-12.629 10.634-23.075 22.43-30.35 37.417-3.579 7.379-9.167 13.967-14.675 20.171-6.446 7.254-11.275 15.321-15.325 24.446 1.721 9.021 5.367 17.829 7.604 27.058 5.671 23.4 3.821 46.663.234 69.692-3.629 23.346-13.292 44.771-26.659 64.471-6.383 9.408-15.008 16.445-23.333 23.766-7.754 6.834-15.346 13.804-22.621 21.138-.321 1.021-.596 2.112-2.521 1.983l-.17-.012z" fill="#0e0e0e" /><path d="M767.554 348.383c16.084-15.212 28.046-33.695 38.013-53 13.466-26.075 25.604-52.958 33.983-81.237 3.929-13.267 7.304-26.754 9.958-40.338 3.892-19.883.221-39.62-3.408-59.116-3.329-17.867-1.729-35.63-.567-53.417.309-4.658 3.188-8.983 9.104-11.3 4.621 1.008 7.934 4.667 11.309 8.679 12.517 14.9 17.292 32.308 19.354 51.371 2.213 20.442 1.162 41.408 8.317 61.196.837 2.316.6 4.658-.117 7.025-3.221 10.558-2.046 21.462-1.021 32.017 1.15 11.899 1.7 23.745 1.596 35.654-.033 4.104-.279 8.083 5.092 10.02 6.133-.366 9.383-4.17 10.525-10.354 4.296-23.271 11.246-45.908 6.558-70.496-2.629-13.774-3.321-28.316-4.304-42.504-1.313-18.862-7.767-36.45-10.763-54.82-3.095-18.896-4.695-37.696 6.288-56.538 11.217 3.858 21.508 8.271 27.346 19.058 11.058 20.471 16.654 42.246 19.358 65.596 3.387 29.188 3.954 58.521 6.796 87.721 1.612 16.596 4.066 34.037-1.204 50.846-1.055 3.366-.388 6.287 3.233 8.492 3.804 1.312 7.246-1.067 11.288-2.338 6.325-15.337 10.612-30.562 9.512-48.125-1.3-20.563-1.9-41.275-3.625-61.821-1.512-18.083-5.979-35.904-8.017-53.962-1.758-15.555-6.141-31.342-.016-46.892 20.479-2.596 27.862 12.379 35.321 26.213 11.858 21.995 19.837 45.749 29.312 68.82.867 2.117.829 4.646.979 7 .221 3.575-.596 7.438.471 10.696 4.875 14.809 4.071 30.154 5.758 45.275 1.555 13.908-1.083 26.979-2.32 40.238-1.946 20.879-6.13 41.541-9.384 62.45-8.575 3.666-16.921 5.762-25.729 5.625-9.283-.142-18.271 1.008-26.562 5.466-2.559 1.38-5.288 2.109-8.034 1.838-16.471-1.625-29.141 7.341-41.346 15.941-9.658 6.805-17.816 15.821-26.341 24.163-12.384 12.112-8.667 27.071-6.425 41.5.537 3.463 3.571 6.346 7.658 6.533 3.692.175 5.846-2.158 6.892-5.487 6.771-21.488 23.4-32.75 42.429-42.104 14.833-7.288 30.196-10.767 46.521-13.109 17.462-2.504 34.721-7.166 51.879-12.308 17.346-5.204 30.358-14.475 42.625-26.371 4.287-4.162 9.208-5.971 15.521-4.625 2.346 8.883-1.329 17.138-2.363 25.667-3.342 27.492-21.108 44.45-42.279 58.883-16.383 11.175-32.942 22.063-50.829 30.842-6.767 3.325-12.492 8.396-17.283 14.446-2.696 3.404-5.659 6.787-9.117 9.366-25.942 19.359-44.367 45.104-61.738 71.8-2.771 4.255-5.204 8.855-10.087 12.121-7.642-9.9-16.188-18.667-22.683-29.633-4.451-2.704-9.496-1.758-14.571-.475-11.221-17.883-24.242-34.354-38.98-49.467-1.37-1.408-2.833-2.925-3.841-4.421-11.708-17.462-17.675-25.037-28.221-36.208-1.621-1.721-4.288-3.029-4.912-5.021-5.35-16.979-19.98-26.304-31.267-38.337-2.488-2.655-5.213-4.871-5.642-8.734z" fill="#fff" /><path d="M363.013 1518.81c10.683-1.317 12.379-.867 14.77 7.737 3.83 13.775 6.25 27.967 6.4 42.254.259 25.213-4.896 49.596-12.012 73.779-4.833 16.405-11.679 32.017-16.734 48.288-1.433 4.612-3.604 8.812-6.879 12.412-2.008 2.209-4.304 3.554-7.375 2.55-3.058-1.004-3.991-3.641-4.729-6.387-.887-3.296-.054-6.571 1.492-9.238 8.037-13.837 8.633-29.704 11.562-44.725 3.646-18.654 8.196-37.241 9.392-56.375 1.042-16.662 1.258-33.312.867-49.975-.167-6.775-.425-13.479 3.246-20.32z" fill="#0e0e0e" /><path d="M796.017 1375.36c1.583-4.455 2.729-6.946 3.35-9.555 2.137-9.004 6.641-15.708 15.758-19.195 8.004-3.076 15.421-7.496 22.771-12.13-10.042 16.809-22.3 31.205-41.879 40.88z" fill="#fff" /><path d="M1005.46 1146.81c1.063-35.833-42.17-84.116-86.637-78.441-50.558 6.446-84.658 39.691-82.329 97.687 1.654 40.984 43.05 74.955 85.87 72.634 50.08-2.713 83.809-39.134 83.096-91.88zm1.034-93.191c8.191-.459 8.125 4.808 7.216 9.512-1.416 7.279-5.875 12.859-11.758 17.363-2.475 1.892-6.117 2.079-7.713 5.291.309 3.501 2.338 4.638 5.584 4.092 8.612-1.433 15.275-6.191 21.217-12.287 3.624-3.721 3.716-3.634 11.32-4.709 1.33 18.542-14.591 23.313-24.666 31.805-.255 4.058 1.875 6.258 4.275 8.57 8.137.305 15.033-4.895 22.883-5.058 1.433 9.204 1.433 9.204-19.742 18.767 5.604 13.708 7.259 28.279 4.988 42.75-5.621 35.779-24.546 61.691-57.979 77.258-23.43 10.908-47.629 10.633-71.038 4.271-23.95-6.509-42.692-22.333-55.191-44.463-10.109-17.895-15.621-37.175-17.463-57.604-.512-5.704.175-11.25 1.971-16.471 11.721-33.958 30.196-61.129 66.854-73.162 23.483-7.7 45.363-4.317 67.304 3.296 7.346 2.55 14.904 5.062 21.771 9.37 6.933 4.355 19.892-.633 24.767-8.512 2.033-3.292 3.675-6.825 5.4-10.079zM597.354 1134.88c-.683 52.792 33.063 89.171 83.113 91.859 42.887 2.308 84.204-31.629 85.854-72.646 2.337-57.942-31.713-91.192-82.333-97.675-44.346-5.688-88.105 42.954-86.634 78.462zm-4.271-37.787c-9.129-.167-17.558.391-25.645-6.821 12.195-8.608 28.516-1.558 38.4-13.342-6.45-5.462-15.638-7.166-20.896-14.362 1.5-6.171 5.691-4.621 9.341-3.063 5.492 2.346 10.905 4.571 16.988 4.992 4.017.279 7.687.162 11.641-2.858-6.833-4.738-14.799-7.33-17.166-15.442 3.217-3.979 6.012-2.229 8.796-.613 12.116 6.996 24.858 8.163 37.716 2.892 14.421-5.916 29.613-7.254 44.4-5.083 28.375 4.162 53.159 15.608 68.355 41.933 1.383 2.404 2.529 5.004 4.22 7.175 14.771 18.95 17.959 40.388 12.709 63.15-6.696 29.058-19.596 54.588-45.275 71.683-11.275 7.501-23.396 12.676-37.238 14.692-29.458 4.292-57.212-.629-79.85-19.304-25.854-21.342-40.729-49.433-37.233-84.717 1.379-13.904 6.808-26.67 10.737-40.912z" fill="#0e0e0e" /><path d="M992.938 1158.14c1.454 43.108-35.925 70.57-72.967 68.958-40.446-1.763-72.388-35.8-72.296-71.85.096-39.246 31.742-77.212 72.429-74.35 41.154 2.9 73.129 32.05 72.834 77.242zM609.892 1146.3c-2.592-28.65 20.575-64.067 49.746-72.138 14.787-4.095 28.6-6.929 44.091-2.537 17.467 4.954 28.742 16.546 38.338 30.296 29.487 42.262 4.437 89.941-31.788 106.145-31.579 14.126-57.833 5.826-82.571-14.104-10.05-8.1-17.275-29.4-17.816-47.662z" fill="#0e0e0e" /></g></g></svg>