<?xml version="1.0" standalone="no"?>
<!DOCTYPE svg PUBLIC "-//W3C//DTD SVG 20010904//EN"
 "http://www.w3.org/TR/2001/REC-SVG-20010904/DTD/svg10.dtd">
<svg version="1.0" xmlns="http://www.w3.org/2000/svg"
 width="1024.000000pt" height="1024.000000pt" viewBox="0 0 1024.000000 1024.000000"
 preserveAspectRatio="xMidYMid meet">
<metadata>
Created by potrace 1.14, written by Peter Selinger 2001-2017
</metadata>
<g transform="translate(0.000000,1024.000000) scale(0.100000,-0.100000)"
fill="#000000" stroke="none">
<path d="M4524 8101 c-11 -12 -96 -17 -112 -7 -7 4 -12 3 -12 -3 0 -6 -11 -6
-30 -1 -17 5 -28 5 -25 0 3 -4 -2 -11 -11 -14 -10 -4 -13 -2 -8 6 5 7 0 9 -13
6 -11 -3 -28 -1 -37 4 -10 6 -16 5 -16 -1 0 -5 -10 -7 -22 -3 -15 4 -19 2 -13
-7 6 -10 3 -11 -13 -2 -15 8 -22 8 -25 -2 -4 -9 -8 -8 -16 3 -8 11 -11 12 -11
2 0 -7 -4 -11 -9 -7 -5 3 -12 1 -16 -4 -3 -7 -15 -7 -30 -1 -20 8 -23 7 -18
-8 5 -14 4 -15 -8 -6 -20 15 -191 16 -183 1 5 -9 4 -9 -6 0 -15 14 -43 6 -33
-10 3 -6 1 -7 -6 -3 -6 4 -19 2 -28 -6 -15 -11 -16 -11 -9 6 7 19 6 19 -13 2
-11 -10 -21 -13 -25 -7 -4 5 -15 9 -26 8 -10 -1 -16 -5 -14 -9 3 -4 0 -9 -5
-9 -21 -3 -26 -4 -39 -13 -7 -4 -16 -6 -19 -3 -3 3 -15 2 -28 -3 -14 -5 -26
-5 -34 3 -8 8 -11 7 -11 -4 0 -12 -2 -12 -10 1 -7 11 -10 11 -10 2 0 -9 -5
-10 -18 -3 -11 6 -24 6 -35 0 -9 -6 -17 -6 -17 -2 0 4 -4 2 -9 -6 -5 -8 -26
-15 -47 -17 -22 -1 -41 -3 -44 -4 -3 -1 -8 -2 -12 -1 -5 0 -8 -3 -8 -8 0 -6
-9 -8 -20 -6 -11 2 -20 -2 -20 -8 0 -7 -4 -6 -10 3 -8 12 -10 12 -10 1 0 -8
-7 -11 -20 -8 -13 3 -18 1 -13 -6 4 -6 0 -8 -10 -4 -9 3 -18 0 -21 -9 -3 -9
-10 -12 -16 -9 -5 3 -10 1 -10 -6 0 -9 -3 -10 -11 -2 -10 10 -26 7 -89 -15 -8
-3 -19 -6 -25 -7 -5 0 -16 -4 -22 -8 -7 -5 -18 -5 -25 -1 -7 5 -8 3 -3 -6 6
-10 4 -12 -8 -7 -10 4 -17 1 -18 -6 0 -7 -4 -3 -9 8 l-9 20 0 -20 c-1 -17 -3
-17 -11 -5 -8 12 -10 12 -10 1 0 -11 -3 -11 -16 -1 -12 11 -15 11 -12 -1 2 -9
-4 -13 -15 -11 -10 2 -24 -1 -31 -7 -6 -5 -21 -8 -31 -7 -11 2 -25 0 -30 -5
-6 -4 -31 -10 -55 -11 -25 -2 -51 -8 -59 -12 -10 -6 -12 -5 -7 2 5 8 2 10 -8
6 -9 -3 -13 -11 -9 -17 4 -6 0 -8 -10 -4 -9 3 -19 2 -22 -4 -4 -5 -11 -7 -16
-4 -5 4 -9 2 -9 -3 0 -10 -60 -26 -97 -25 -13 0 -23 -3 -23 -7 0 -10 -20 -8
-39 4 -9 6 -12 5 -8 -1 4 -6 -6 -10 -24 -11 -17 0 -38 -7 -47 -14 -9 -7 -13
-8 -9 -2 3 6 0 11 -8 11 -8 0 -12 -4 -9 -9 3 -4 -6 -8 -20 -8 -14 0 -28 -5
-32 -11 -4 -8 -9 -7 -15 2 -5 8 -9 9 -9 3 0 -6 -6 -11 -12 -11 -7 0 -26 -4
-43 -8 -35 -8 -96 -16 -142 -17 -18 -1 -33 -4 -33 -8 0 -9 -32 -6 -49 5 -9 5
-12 4 -7 -3 8 -14 -34 -12 -53 2 -11 8 -13 8 -8 0 9 -15 -43 -15 -62 0 -12 9
-13 8 -6 -3 6 -11 4 -13 -8 -8 -10 3 -17 2 -17 -3 0 -5 -10 -7 -21 -5 -12 2
-31 -1 -42 -6 -17 -10 -19 -9 -13 7 6 16 5 16 -15 -2 -12 -10 -20 -14 -17 -9
7 12 -51 13 -70 1 -7 -4 -19 -3 -27 4 -10 8 -16 7 -23 -6 -7 -12 -11 -13 -17
-5 -5 9 -10 9 -21 0 -8 -6 -14 -7 -14 -2 0 5 -19 8 -41 6 -23 -2 -48 2 -56 8
-11 10 -12 8 -6 -7 6 -16 5 -17 -9 -6 -9 7 -20 12 -24 11 -5 -1 -13 0 -19 1
-8 2 -58 5 -168 10 -11 1 -15 6 -10 13 5 9 3 9 -8 1 -18 -14 -52 -14 -61 0 -5
7 -8 4 -8 -7 0 -10 -4 -16 -9 -12 -5 3 -12 1 -16 -5 -3 -5 -12 -10 -18 -10 -7
0 -6 4 3 10 10 7 -2 9 -42 8 -32 -1 -58 -7 -58 -13 0 -7 -3 -7 -8 0 -9 13 -64
16 -56 4 3 -5 -2 -6 -10 -3 -9 3 -16 11 -16 18 0 6 -5 4 -10 -4 -5 -8 -10 -10
-10 -4 0 13 -59 6 -79 -10 -11 -8 -13 -8 -7 2 5 8 0 12 -18 12 -14 0 -28 5
-31 10 -5 7 -11 8 -18 1 -7 -5 -26 -8 -44 -7 -17 1 -30 -1 -27 -5 2 -4 -3 -10
-12 -13 -8 -3 -13 -2 -10 2 2 4 -11 7 -29 7 -18 0 -31 -3 -28 -7 2 -5 -1 -8
-6 -8 -6 0 -11 5 -11 12 0 9 -3 9 -12 0 -7 -7 -17 -12 -23 -12 -5 0 -3 5 5 10
10 7 11 10 2 10 -7 0 -15 -6 -18 -13 -3 -8 -18 -12 -40 -11 -22 2 -37 -2 -40
-10 -5 -13 -12 -15 -58 -19 -13 -1 -22 -6 -18 -11 3 -5 -2 -6 -12 -3 -10 4
-15 3 -11 -3 3 -6 -2 -10 -13 -10 -10 0 -31 -11 -46 -25 -14 -13 -26 -21 -26
-17 0 4 -7 -2 -15 -12 -10 -13 -15 -15 -15 -6 0 9 -4 8 -13 -5 -8 -10 -19 -15
-26 -11 -7 5 -10 2 -9 -6 2 -7 -2 -12 -9 -11 -8 2 -10 -4 -6 -15 6 -14 4 -15
-9 -4 -13 10 -17 10 -22 -3 -4 -11 -2 -14 6 -9 7 4 8 3 4 -5 -6 -9 -12 -9 -24
1 -10 7 -14 8 -9 3 4 -4 -1 -18 -10 -29 -18 -20 -17 -20 2 -6 19 14 19 14 6
-2 -7 -10 -20 -18 -28 -18 -8 0 -13 -6 -11 -12 5 -13 -3 -24 -34 -56 -15 -16
-15 -17 8 -18 13 -1 24 4 24 11 0 6 12 25 27 41 16 16 33 38 38 49 6 11 19 21
29 23 16 4 16 1 -5 -21 -41 -42 -64 -72 -61 -79 1 -5 -3 -8 -8 -8 -5 0 -9 -3
-8 -7 3 -17 -22 -63 -34 -63 -10 0 -9 3 1 9 8 5 11 16 7 26 -5 14 -9 15 -21 5
-7 -6 -12 -17 -9 -25 3 -7 1 -16 -4 -19 -5 -3 -8 -22 -5 -42 2 -19 0 -33 -4
-31 -4 3 -8 -6 -8 -19 0 -13 4 -24 8 -24 5 0 5 -4 2 -10 -3 -5 0 -10 7 -10 10
0 10 -2 -1 -9 -11 -7 -11 -9 0 -14 12 -5 12 -7 1 -15 -11 -7 -11 -10 2 -15 9
-4 16 -11 16 -17 0 -6 -5 -8 -11 -4 -8 5 -9 2 -2 -11 6 -10 8 -26 6 -36 -3
-12 0 -19 8 -19 11 0 11 -2 -1 -10 -12 -8 -12 -10 -1 -10 11 0 11 -3 0 -17 -9
-11 -10 -14 -2 -9 9 5 13 0 12 -16 -1 -31 8 -67 21 -82 5 -7 7 -16 3 -19 -3
-4 -1 -7 6 -7 8 0 11 -7 7 -15 -3 -8 0 -15 6 -15 6 0 8 -3 5 -7 -4 -3 1 -12
11 -20 9 -8 12 -12 6 -9 -6 3 -11 -1 -11 -9 0 -8 5 -13 11 -12 6 1 10 -6 8
-17 -2 -12 1 -15 8 -11 9 5 10 1 5 -15 -5 -15 -4 -20 4 -16 10 6 13 1 10 -20
0 -3 10 -14 22 -25 12 -10 17 -19 11 -19 -13 0 -9 -29 5 -38 5 -4 9 -15 7 -25
-1 -9 6 -23 16 -30 10 -7 20 -19 22 -27 2 -8 6 -17 10 -20 3 -3 8 -12 10 -20
2 -8 9 -20 16 -25 7 -6 14 -20 15 -33 0 -12 8 -22 17 -23 11 0 11 -2 2 -6 -10
-4 -8 -9 7 -20 12 -8 21 -20 21 -28 0 -8 5 -17 12 -21 7 -5 8 -3 3 6 -5 9 -4
11 4 6 6 -4 9 -11 6 -16 -8 -13 17 -60 32 -60 8 0 11 -4 8 -10 -3 -5 -1 -10 5
-10 6 0 9 -4 5 -9 -3 -5 -1 -12 5 -16 6 -4 7 -11 4 -17 -4 -6 -2 -8 3 -5 13 8
26 -20 16 -35 -3 -7 -1 -8 6 -4 12 8 44 -18 34 -28 -4 -3 -1 -6 6 -6 7 0 9 -4
6 -10 -3 -5 1 -10 9 -10 10 0 16 -9 16 -22 0 -19 2 -20 10 -8 9 13 10 13 11 0
1 -8 1 -18 0 -22 0 -5 2 -7 7 -5 4 1 8 -2 9 -6 1 -5 11 -17 22 -26 11 -10 17
-22 13 -26 -4 -5 -1 -5 6 -1 7 4 15 1 18 -8 3 -9 10 -14 14 -11 4 3 11 -2 14
-11 4 -10 2 -13 -7 -8 -8 5 -7 2 2 -9 7 -9 20 -17 28 -17 9 0 13 -6 10 -14 -4
-10 -1 -13 9 -9 9 3 14 -1 14 -12 0 -11 5 -15 16 -11 8 3 12 2 9 -3 -3 -5 4
-12 15 -16 11 -3 20 -13 20 -21 0 -8 5 -14 11 -14 5 0 7 -5 4 -10 -4 -6 -3
-10 2 -9 19 3 34 -2 28 -10 -3 -5 4 -13 16 -16 17 -6 19 -9 8 -16 -10 -6 -11
-9 -1 -9 24 0 27 2 24 16 -3 14 -104 124 -114 124 -10 0 -68 58 -68 67 0 5
-11 20 -25 33 -14 13 -25 20 -25 15 0 -4 -11 8 -25 28 -13 20 -39 53 -57 73
-18 20 -33 40 -33 45 0 13 -41 39 -49 31 -4 -3 -4 1 -1 10 4 9 2 19 -4 22 -6
4 -8 13 -4 21 3 9 -1 15 -11 15 -10 0 -13 5 -9 17 4 11 3 14 -5 9 -8 -5 -19 9
-32 38 -10 25 -24 46 -29 46 -6 0 -8 8 -4 18 3 9 2 14 -2 9 -10 -8 -58 68 -53
84 2 5 11 0 20 -11 10 -11 13 -20 7 -20 -6 0 -2 -8 9 -17 12 -10 32 -39 45
-65 14 -26 29 -44 33 -40 5 4 6 3 2 -2 -4 -5 4 -23 17 -41 14 -17 25 -37 25
-43 0 -7 5 -12 10 -12 6 0 10 -7 10 -16 0 -8 5 -12 10 -9 6 3 10 0 10 -7 0 -7
14 -29 30 -48 16 -19 30 -39 30 -43 0 -5 6 -5 13 -1 6 4 9 4 5 0 -8 -10 28
-51 170 -193 61 -62 112 -118 112 -125 0 -6 3 -8 6 -5 4 3 20 -8 35 -24 16
-17 29 -27 30 -23 0 5 4 -1 10 -14 5 -14 14 -20 20 -16 7 4 10 1 7 -6 -8 -24
-24 -21 -36 4 -13 29 -57 60 -72 51 -17 -10 -11 -25 9 -25 11 0 23 -9 26 -20
3 -11 11 -20 16 -20 5 0 9 -7 9 -16 0 -8 5 -12 10 -9 6 3 10 1 10 -5 0 -6 5
-8 10 -5 6 3 10 1 10 -5 0 -19 29 -42 45 -36 17 6 21 27 4 23 -6 -1 -18 9 -27
23 -15 22 -11 20 28 -10 25 -19 60 -49 77 -67 18 -18 37 -33 43 -33 5 0 10 -3
10 -8 0 -4 12 -13 27 -20 16 -6 42 -24 59 -40 72 -62 85 -72 95 -72 5 0 7 -4
4 -10 -3 -5 0 -10 8 -10 8 0 20 -7 27 -15 7 -8 16 -13 20 -10 4 2 15 -4 25
-15 10 -11 21 -17 26 -15 4 3 14 -1 22 -9 8 -8 43 -29 77 -45 35 -17 71 -38
81 -47 9 -8 23 -16 31 -17 22 -4 118 -52 118 -59 0 -13 -19 -9 -45 8 -14 9
-25 13 -25 9 0 -5 -8 -1 -17 7 -10 9 -35 23 -55 33 -21 9 -38 22 -38 27 0 5
-4 6 -10 3 -5 -3 -10 -1 -10 5 0 6 -6 10 -13 9 -27 -3 -48 2 -42 10 6 10 -57
44 -81 44 -8 0 -16 7 -19 16 -3 9 -30 27 -60 41 -31 14 -58 33 -61 42 -3 10
-10 18 -15 18 -5 0 -18 9 -29 20 -12 12 -25 18 -30 15 -6 -4 -10 -1 -10 6 0
18 -41 50 -72 56 -25 5 -33 14 -29 36 0 4 -3 7 -8 7 -5 0 -23 11 -39 25 -25
21 -32 23 -41 11 -10 -11 -8 -16 8 -21 12 -3 21 -14 21 -23 0 -11 3 -13 8 -6
5 9 10 8 19 -1 10 -11 10 -15 0 -18 -7 -3 -4 -6 6 -6 9 -1 17 -5 17 -11 0 -5
7 -10 15 -10 8 0 15 -4 15 -10 0 -5 5 -10 11 -10 5 0 7 6 3 13 -4 6 2 4 14 -7
12 -10 19 -23 15 -29 -3 -5 -1 -7 4 -4 6 4 14 0 17 -9 3 -8 10 -12 16 -9 9 6
14 -8 11 -28 -1 -5 3 -6 9 -2 6 3 7 11 4 17 -4 7 -2 8 4 4 7 -4 12 -17 12 -29
0 -18 2 -19 10 -7 9 14 14 7 11 -13 -1 -5 3 -6 9 -2 5 3 10 2 10 -4 0 -5 9
-13 20 -16 11 -3 27 -13 35 -21 8 -8 23 -16 34 -17 12 -1 17 -6 13 -16 -3 -9
-1 -12 6 -7 7 4 12 2 12 -4 0 -6 4 -8 10 -5 5 3 10 1 10 -5 0 -6 5 -8 10 -5 6
3 10 0 10 -7 0 -10 2 -10 9 1 7 11 10 9 16 -8 4 -13 9 -20 12 -17 9 9 44 -14
38 -24 -3 -6 1 -7 9 -4 9 3 16 1 16 -4 0 -6 9 -9 20 -7 13 2 20 -2 20 -11 0
-8 5 -12 10 -9 6 3 13 -1 16 -10 5 -13 9 -13 22 -3 12 10 14 10 8 1 -4 -8 -1
-13 8 -13 9 0 16 -4 16 -10 0 -5 8 -10 18 -10 10 0 22 -3 26 -7 4 -5 13 -8 19
-8 7 -1 11 -6 10 -11 -1 -6 4 -11 12 -11 8 0 12 5 9 11 -3 6 4 0 15 -13 12
-13 21 -20 21 -16 0 5 9 0 21 -11 12 -10 23 -18 25 -16 10 6 25 1 20 -7 -3 -4
6 -7 19 -5 14 1 25 -3 25 -9 0 -5 3 -7 7 -4 3 4 12 -1 20 -11 8 -9 12 -11 8
-5 -4 9 -1 11 9 7 9 -3 14 -10 11 -14 -3 -4 9 -10 26 -14 20 -4 28 -10 23 -18
-5 -8 -2 -9 9 -5 10 3 17 2 17 -3 0 -5 7 -7 15 -4 8 4 15 1 15 -7 0 -7 3 -9 7
-6 3 4 15 -1 25 -10 18 -16 18 -16 12 3 -7 17 -6 17 9 5 9 -7 14 -17 11 -22
-3 -5 5 -5 17 0 33 12 34 28 2 34 -15 3 -41 11 -58 18 -16 7 -36 13 -44 15 -8
1 -17 6 -20 11 -3 5 -13 8 -21 8 -8 0 -21 7 -28 17 -7 10 -20 18 -28 18 -8 0
-31 9 -51 20 -20 10 -40 17 -45 14 -4 -3 -8 0 -8 5 0 6 -6 11 -12 11 -7 0 -24
9 -38 20 -19 15 -21 20 -9 20 9 0 22 -7 29 -15 6 -8 15 -13 18 -12 4 1 42 -15
84 -35 43 -21 83 -39 90 -40 7 -2 15 -6 18 -9 6 -6 97 -49 105 -49 4 0 27 -10
53 -21 25 -12 53 -23 62 -24 8 -2 17 -4 20 -6 3 -1 10 -3 15 -4 43 -9 105 -31
105 -38 0 -4 4 -6 9 -3 5 3 14 -1 21 -9 7 -8 16 -12 21 -9 5 3 9 0 9 -6 0 -7
6 -10 14 -7 7 3 17 2 22 -3 5 -5 26 -11 48 -14 21 -4 42 -8 46 -11 3 -2 23 -5
43 -7 21 -1 37 -6 37 -11 0 -4 4 -6 8 -3 12 7 100 -14 111 -27 5 -7 12 -24 14
-37 7 -35 29 -80 39 -80 4 0 8 -5 8 -11 0 -20 75 -100 132 -140 32 -22 58 -46
58 -52 0 -7 14 -23 32 -37 17 -14 37 -30 44 -37 6 -7 14 -9 18 -6 3 3 8 -2 12
-11 3 -9 9 -14 13 -12 4 3 15 -10 25 -27 9 -18 35 -45 56 -62 37 -29 55 -53
46 -62 -7 -7 -54 45 -47 53 3 4 -2 4 -11 1 -12 -4 -18 -1 -18 8 0 8 -7 15 -16
15 -8 0 -12 5 -9 10 3 6 0 13 -9 16 -8 3 -12 12 -9 20 3 8 0 14 -6 14 -17 0
-23 3 -48 25 -55 48 -63 55 -69 53 -3 -2 -14 13 -23 32 -10 19 -23 34 -29 33
-7 -2 -12 2 -12 7 0 6 -7 10 -15 10 -8 0 -15 4 -15 10 0 5 -13 16 -30 25 -16
9 -30 22 -30 30 0 8 -7 15 -15 15 -8 0 -14 3 -14 8 3 20 -3 32 -17 32 -10 0
-14 6 -11 14 3 8 0 17 -8 19 -7 3 -16 19 -20 36 -4 17 -11 31 -15 31 -5 0 -8
12 -7 27 2 23 -2 26 -28 28 -16 1 -40 7 -52 14 -15 8 -23 8 -23 1 0 -6 -11 -3
-25 6 -14 9 -25 14 -25 10 0 -3 -11 -1 -24 4 -15 5 -27 5 -35 -3 -8 -8 -11 -8
-11 0 0 6 -26 17 -57 24 -32 7 -73 23 -92 35 -19 13 -68 31 -110 41 -42 9 -78
20 -81 23 -10 11 -33 5 -38 -10 -3 -8 -1 -12 3 -8 4 4 20 1 35 -7 15 -8 30
-11 34 -8 3 4 6 1 6 -5 0 -7 14 -12 30 -12 17 0 30 -5 30 -11 0 -8 4 -8 14 0
10 9 16 8 26 -4 7 -9 19 -14 27 -11 8 3 12 2 9 -3 -3 -5 4 -11 15 -14 12 -3
19 -10 16 -14 -3 -5 7 -8 24 -7 16 1 29 -2 29 -6 0 -5 9 -7 20 -5 11 2 20 -1
20 -6 0 -6 5 -7 10 -4 6 3 10 2 10 -4 0 -5 8 -8 18 -6 9 1 23 -3 31 -9 12 -9
13 -7 7 8 -6 18 -5 19 11 4 10 -8 26 -14 36 -13 9 2 17 -1 17 -7 0 -6 9 -8 20
-5 11 3 20 1 20 -5 0 -5 5 -6 10 -3 6 3 10 2 10 -3 0 -6 10 -8 22 -4 14 3 19
1 14 -6 -3 -6 1 -17 9 -25 11 -12 12 -17 2 -20 -9 -4 -9 -6 1 -6 6 -1 12 -8
12 -16 0 -8 5 -15 11 -15 8 0 7 -5 -1 -16 -11 -12 -11 -15 1 -12 8 2 13 -3 11
-12 -2 -8 -1 -12 3 -8 9 8 35 -16 35 -31 0 -6 5 -11 10 -11 6 0 10 -5 10 -11
0 -12 25 -39 36 -39 3 0 15 -10 25 -22 11 -11 19 -17 19 -12 0 5 6 2 13 -7 7
-9 17 -18 22 -20 6 -2 9 -7 8 -11 -2 -4 7 -10 19 -13 16 -6 18 -9 7 -16 -11
-7 -11 -9 3 -9 9 0 26 -12 37 -26 12 -15 21 -21 21 -13 0 11 2 11 9 -1 6 -8 7
-18 5 -22 -3 -5 -2 -8 3 -7 21 4 34 -2 27 -13 -5 -8 -2 -9 9 -5 13 5 17 1 17
-14 0 -14 5 -19 14 -16 10 4 14 0 11 -14 -2 -10 1 -19 6 -19 6 0 7 -6 3 -12
-5 -9 -2 -9 9 1 15 12 17 11 17 -2 0 -9 10 -19 21 -22 17 -6 19 -9 8 -16 -10
-6 -8 -9 9 -9 13 0 21 -4 17 -9 -3 -5 4 -16 16 -25 12 -8 18 -19 14 -25 -3 -7
-3 -11 2 -10 22 4 43 -2 38 -11 -4 -6 1 -7 11 -3 12 4 15 3 10 -5 -4 -8 -1
-12 10 -12 10 0 15 -3 11 -6 -7 -8 36 -53 46 -47 4 2 7 -3 7 -12 0 -10 5 -13
12 -9 7 5 9 2 5 -8 -3 -10 0 -15 11 -14 9 0 16 -4 15 -11 -1 -6 5 -17 15 -25
15 -11 16 -11 7 2 -5 9 -1 6 10 -7 12 -13 26 -23 33 -23 7 0 12 -4 12 -9 0 -5
9 -13 20 -16 11 -3 20 -12 20 -20 0 -7 7 -16 16 -19 8 -3 12 -11 8 -17 -4 -8
1 -9 16 -4 15 5 20 4 16 -4 -4 -6 4 -13 17 -17 26 -6 60 -40 65 -65 2 -8 8
-15 13 -17 5 -2 9 -10 9 -18 0 -8 5 -14 11 -14 5 0 7 -4 4 -10 -3 -6 1 -10 9
-10 15 0 21 -17 17 -48 -1 -7 2 -11 6 -10 4 2 10 -2 13 -7 2 -6 10 -17 17 -25
7 -8 20 -24 29 -35 8 -11 13 -14 9 -7 -3 6 -1 12 4 12 6 0 11 -6 11 -14 0 -7
7 -19 15 -26 13 -11 13 -15 3 -21 -10 -7 -10 -9 0 -9 6 0 12 -9 12 -21 0 -27
24 -19 28 9 2 12 -1 22 -5 22 -5 0 -9 12 -9 26 0 23 1 24 13 8 7 -9 10 -21 7
-25 -3 -5 0 -9 6 -9 7 0 10 -6 7 -14 -3 -8 3 -26 14 -40 11 -14 20 -29 21 -33
0 -4 9 -25 19 -45 11 -21 17 -38 15 -38 -3 0 2 -16 10 -35 20 -48 18 -62 -5
-36 -11 13 -17 29 -15 36 3 7 1 16 -4 19 -6 3 -8 15 -5 26 3 11 1 20 -4 20 -5
0 -15 15 -21 34 -18 50 -39 64 -60 42 -11 -12 -13 -16 -4 -14 8 2 19 -6 25
-17 7 -11 19 -26 27 -33 13 -12 13 -13 0 -6 -11 6 -11 1 4 -20 11 -18 13 -25
5 -21 -8 5 -6 -1 4 -12 19 -21 23 -38 7 -28 -16 10 -12 0 10 -25 11 -12 17
-27 14 -31 -3 -5 -1 -9 4 -9 5 0 9 -6 10 -12 3 -34 11 -53 21 -50 9 2 9 -3 1
-17 -7 -15 -6 -23 5 -35 11 -11 12 -16 2 -19 -9 -4 -9 -6 1 -6 6 -1 12 -10 12
-22 0 -11 4 -18 9 -15 4 3 7 -6 5 -19 -1 -14 1 -25 6 -25 5 0 7 -11 5 -25 -1
-17 3 -25 14 -25 13 0 13 -2 2 -9 -9 -6 -10 -11 -2 -15 6 -4 9 -12 6 -17 -4
-5 -1 -9 6 -9 8 0 8 -4 -2 -16 -8 -10 -9 -18 -2 -22 5 -4 10 -35 9 -69 -1 -35
3 -59 8 -55 5 3 7 -2 3 -11 -4 -10 -1 -17 6 -17 8 0 8 -3 -2 -9 -7 -5 -9 -10
-3 -12 5 -2 13 -19 17 -38 6 -27 4 -32 -6 -25 -11 6 -12 5 -2 -8 7 -8 10 -18
6 -21 -3 -4 -1 -7 6 -7 7 0 9 -5 6 -10 -4 -6 -1 -18 7 -27 11 -14 11 -16 -2
-8 -13 8 -13 7 -1 -8 7 -9 10 -17 6 -17 -4 0 -1 -8 6 -17 10 -11 10 -14 2 -9
-7 4 -13 2 -13 -3 0 -6 5 -11 11 -11 8 0 8 -4 0 -14 -10 -11 -8 -17 6 -25 10
-6 13 -11 6 -11 -9 0 -8 -7 2 -27 8 -15 11 -31 7 -37 -9 -15 -10 -46 -1 -46 4
0 5 -9 2 -20 -3 -12 0 -20 6 -20 7 0 10 -3 7 -8 -2 -4 7 -12 20 -19 18 -8 22
-8 17 0 -4 7 1 6 10 -2 13 -10 17 -10 17 -1 0 9 3 10 14 1 10 -8 16 -8 25 3
15 18 -8 39 -29 26 -21 -14 -32 -12 -24 3 6 9 4 9 -7 0 -18 -18 -25 -16 -25 5
-1 9 -4 25 -9 35 -4 10 -3 17 5 17 6 0 9 -4 5 -10 -3 -5 5 -16 19 -25 19 -13
29 -14 46 -5 11 6 18 15 15 20 -3 6 -1 18 4 27 8 14 9 8 6 -24 -4 -35 -2 -44
14 -53 11 -5 23 -19 26 -30 4 -11 11 -18 16 -15 5 4 9 0 9 -8 0 -8 9 -24 20
-37 11 -13 20 -27 20 -32 0 -4 7 -8 16 -8 9 0 12 -5 8 -12 -5 -8 -2 -9 9 -5
10 4 16 2 14 -6 -1 -7 6 -11 17 -9 10 2 15 -1 11 -7 -4 -7 0 -8 11 -4 13 5 15
3 9 -7 -5 -8 -4 -11 3 -6 6 3 14 2 17 -4 5 -8 11 -7 21 1 12 10 13 9 8 -5 -4
-12 0 -16 16 -16 11 0 18 -4 15 -10 -3 -6 1 -7 9 -4 9 4 16 1 16 -6 0 -6 6
-10 13 -7 6 2 18 -5 25 -17 9 -13 11 -15 8 -4 -3 12 -1 15 9 11 8 -3 12 -10 9
-15 -4 -6 -1 -8 7 -6 8 3 23 -2 33 -11 16 -13 18 -13 11 -1 -8 13 -6 13 8 2 9
-8 21 -11 26 -8 5 4 14 -2 20 -11 6 -10 11 -13 11 -7 0 11 30 15 30 4 0 -4 7
-7 15 -7 8 0 15 5 15 10 0 5 8 3 17 -4 11 -10 14 -10 9 -1 -4 6 -2 12 3 12 6
0 11 -6 11 -12 0 -10 3 -9 9 1 6 9 10 10 16 2 5 -9 10 -9 20 -1 10 8 15 7 19
-2 5 -11 7 -11 12 0 4 9 9 10 19 2 9 -7 15 -8 19 -1 4 6 14 7 23 4 11 -4 14
-3 9 5 -4 7 -3 12 3 12 5 0 13 -5 16 -10 5 -8 11 -8 19 -1 7 6 16 8 19 4 4 -3
14 0 24 8 14 12 16 12 8 0 -5 -10 -4 -12 3 -7 7 4 12 13 12 21 0 11 -12 13
-52 10 -41 -4 -46 -3 -22 4 17 4 36 11 42 15 6 4 21 -3 32 -14 15 -15 25 -18
39 -11 12 7 22 6 30 -2 10 -9 11 -8 5 7 -5 12 -4 17 3 13 6 -4 21 2 33 13 12
11 26 17 30 15 4 -3 10 2 14 10 3 8 10 15 16 15 6 0 8 -6 4 -12 -4 -8 -3 -10
2 -5 5 5 9 14 9 20 0 7 5 12 10 12 19 0 35 16 29 27 -5 7 -1 9 9 5 9 -3 19 -1
23 5 4 7 3 8 -4 4 -7 -4 -12 -2 -12 3 0 6 6 11 14 11 8 0 17 8 20 17 6 14 9
15 15 4 6 -10 10 -9 15 4 4 10 12 15 22 11 8 -3 12 -2 9 4 -3 6 2 13 12 17 10
4 24 14 31 22 11 13 12 13 7 1 -4 -10 -2 -9 8 2 8 10 18 14 22 10 5 -4 5 1 2
11 -4 10 -3 16 2 12 11 -6 53 49 44 58 -3 4 2 9 11 13 9 3 13 10 10 15 -3 5 0
9 6 9 6 0 8 5 5 10 -3 6 1 10 10 10 10 0 13 5 9 11 -5 8 1 10 20 7 14 -3 26
-1 26 3 0 5 8 6 18 2 9 -3 14 -3 10 2 -4 4 -2 15 4 23 7 8 14 30 15 49 1 19 7
40 12 47 7 9 7 17 -2 26 -10 10 -9 12 3 8 12 -4 15 4 14 41 0 25 4 52 10 60 8
11 8 13 0 8 -13 -8 -13 90 0 111 4 7 4 12 -1 11 -20 -3 -27 2 -13 11 9 6 11
10 3 10 -7 0 -10 7 -6 17 5 12 3 14 -8 8 -12 -8 -12 -6 0 8 7 9 11 24 7 32 -3
8 -1 15 5 15 6 0 7 4 4 10 -3 5 -1 18 5 29 7 13 7 22 0 26 -6 4 -7 12 -3 18
11 18 10 70 -2 86 -7 11 -7 13 2 8 6 -4 14 -3 18 3 3 5 1 10 -6 10 -8 0 -9 4
0 13 7 9 7 17 0 24 -7 7 -6 15 5 26 12 12 13 17 3 21 -9 5 -9 7 1 12 10 5 10
9 0 22 -8 9 -8 13 -2 9 7 -4 15 0 18 9 3 8 2 12 -4 9 -6 -3 -10 -1 -10 4 0 6
4 11 8 11 5 0 7 18 5 41 -3 30 1 47 14 62 10 11 12 17 6 13 -7 -4 -13 -2 -13
3 0 6 4 11 10 11 5 0 6 7 3 17 -4 10 -2 14 5 9 7 -4 10 1 7 14 -2 11 3 24 13
30 15 8 15 11 2 20 -24 16 -27 13 -40 -37 -15 -56 -29 -76 -27 -39 1 14 6 26
11 26 4 0 6 11 4 25 -3 13 -2 22 3 20 4 -3 14 23 23 57 l15 63 -2 -49 c-1 -35
2 -51 12 -54 8 -3 11 0 7 7 -4 6 -2 11 4 11 6 0 8 5 5 10 -4 6 -1 17 5 25 10
12 10 15 -1 15 -9 1 -8 5 5 15 11 8 14 15 8 15 -10 0 -10 3 0 14 7 8 16 12 19
10 4 -2 6 6 5 19 -1 13 4 21 12 19 10 -2 10 2 2 18 -8 16 -8 18 4 14 11 -4 14
0 11 14 -2 11 3 23 11 26 7 3 11 12 8 21 -4 10 0 15 12 16 12 0 14 3 6 6 -9 3
-10 9 -3 17 6 7 12 23 14 36 2 13 12 27 23 30 18 7 18 8 -3 14 -28 9 -30 40
-4 63 11 9 18 20 15 25 -3 4 -1 8 4 8 5 0 12 8 16 18 3 9 14 37 25 62 19 44
19 45 19 13 -1 -18 -4 -33 -8 -33 -4 0 -17 -22 -30 -49 -13 -28 -29 -52 -36
-55 -15 -6 -12 -38 4 -44 7 -2 12 3 12 12 0 9 5 16 11 16 5 0 8 4 5 9 -3 5 1
11 9 15 8 3 15 15 15 26 0 12 4 18 10 15 6 -4 10 -3 9 2 -4 21 2 34 13 27 6
-4 8 -3 4 4 -3 6 -2 13 3 17 6 3 8 11 5 18 -2 7 6 23 18 37 13 14 24 32 26 40
2 8 8 17 13 18 5 2 9 11 9 20 0 15 2 15 11 2 9 -13 10 -13 8 0 -3 30 1 41 14
34 6 -4 9 -4 5 1 -4 4 -2 15 5 23 10 13 9 14 -2 7 -8 -5 -4 7 9 25 13 19 18
30 9 26 -7 -4 -6 -1 3 7 10 8 15 17 11 20 -3 4 -1 7 4 7 6 0 10 8 9 17 -2 10
3 24 11 31 7 8 11 18 7 23 -3 5 0 8 8 7 7 -2 12 3 11 10 -2 6 2 12 7 12 5 0 9
3 9 8 -3 17 2 35 7 29 4 -3 16 -2 28 4 18 9 19 8 5 -3 -9 -7 -14 -19 -11 -26
2 -7 -2 -20 -10 -29 -11 -14 -11 -16 3 -11 12 5 15 1 11 -18 -2 -14 -9 -21
-16 -17 -6 4 -5 0 2 -9 9 -11 10 -18 2 -23 -6 -3 -8 -11 -4 -16 3 -5 0 -17 -8
-26 -7 -9 -8 -14 -2 -10 7 4 15 0 18 -9 3 -8 2 -12 -4 -9 -14 9 -12 -19 3 -34
10 -11 10 -13 0 -7 -8 4 -13 2 -13 -6 0 -8 6 -20 13 -27 10 -11 10 -13 0 -7
-9 5 -13 0 -13 -13 0 -10 6 -22 13 -24 10 -4 10 -6 0 -6 -7 -1 -13 -8 -13 -17
0 -9 5 -12 13 -8 10 6 10 4 0 -7 -16 -16 -17 -43 -2 -33 8 4 8 1 1 -12 -5 -11
-9 -34 -7 -51 1 -18 -2 -33 -6 -33 -5 0 -6 -7 -2 -16 3 -9 0 -20 -8 -25 -8 -5
-9 -9 -3 -9 6 0 10 -13 10 -30 0 -16 -4 -30 -8 -30 -5 0 -6 -5 -3 -10 7 -12
16 -54 17 -85 1 -11 6 -26 12 -34 7 -10 7 -13 1 -9 -6 4 -11 -2 -11 -13 0 -10
4 -19 8 -19 4 0 5 -7 2 -15 -4 -8 -1 -15 5 -15 6 0 8 -7 4 -16 -3 -9 0 -20 8
-25 12 -7 12 -9 0 -9 -11 0 -11 -3 0 -17 12 -15 12 -16 -1 -8 -13 8 -13 7 -1
-8 8 -10 11 -20 8 -24 -4 -3 3 -19 15 -36 13 -18 16 -27 7 -22 -7 5 -5 -2 6
-15 11 -13 14 -20 7 -16 -11 7 -11 4 0 -15 7 -13 15 -26 18 -29 6 -6 10 -22
12 -55 1 -13 6 -21 10 -19 4 3 8 -6 8 -20 0 -14 5 -26 11 -26 5 0 7 -4 4 -10
-3 -5 -1 -10 6 -10 7 0 9 -3 6 -7 -4 -3 0 -17 8 -30 9 -13 12 -23 8 -23 -5 0
-1 -5 7 -10 13 -9 13 -11 0 -20 -13 -8 -12 -10 3 -10 10 0 15 -4 12 -10 -3 -5
1 -10 10 -10 9 0 14 -4 10 -9 -6 -11 35 -42 47 -35 4 3 8 -4 8 -15 0 -13 7
-21 16 -21 10 0 14 -5 10 -16 -3 -8 -2 -12 4 -9 6 3 10 1 10 -5 0 -6 5 -8 10
-5 6 3 10 -1 10 -9 0 -9 5 -16 11 -16 5 0 7 -4 4 -10 -3 -5 1 -10 10 -10 9 0
14 -4 11 -9 -3 -5 4 -11 15 -14 12 -3 18 -10 15 -15 -4 -6 3 -8 16 -4 14 3 19
2 14 -6 -5 -8 0 -12 12 -12 11 0 26 -8 33 -17 13 -17 13 -17 -6 -3 -19 14 -19
14 -6 -2 7 -10 17 -15 22 -12 5 3 9 1 9 -5 0 -6 6 -8 14 -5 8 3 17 1 21 -5 3
-6 17 -11 31 -11 13 0 24 -4 24 -10 0 -5 7 -10 16 -10 9 0 12 -5 8 -12 -5 -9
-2 -9 9 1 9 7 17 9 17 4 0 -10 8 -12 55 -15 14 -1 25 -5 25 -8 0 -3 14 -7 31
-8 20 -2 28 1 24 9 -6 8 -2 8 14 0 16 -9 21 -9 21 1 0 8 3 9 8 3 6 -9 29 -11
70 -6 7 0 10 6 6 12 -5 8 -2 9 12 1 15 -8 24 -7 38 6 15 13 18 14 12 2 -4 -8
0 -6 8 4 12 15 16 16 16 5 0 -9 3 -10 8 -3 4 6 15 10 25 8 9 -1 17 2 17 7 0 5
3 8 8 8 4 -1 10 0 15 1 4 1 10 3 15 5 4 1 20 7 35 13 16 7 34 9 40 5 7 -4 7
-1 -1 9 -11 14 -10 17 10 24 13 4 26 7 31 6 4 -1 7 3 7 9 0 8 5 7 15 -1 13
-11 14 -10 9 5 -5 12 -4 16 4 11 6 -3 13 -2 17 4 4 6 11 8 16 5 8 -6 13 8 10
27 0 5 5 7 12 5 6 -1 11 3 10 10 -2 7 6 10 17 8 13 -3 17 1 13 11 -4 10 0 12
13 7 11 -4 15 -3 11 4 -4 6 0 13 8 17 8 3 15 12 15 21 0 9 9 15 21 15 14 0 19
5 16 14 -4 10 -1 13 9 9 7 -3 14 0 14 6 0 6 7 11 16 11 8 0 12 5 9 10 -3 5 -1
10 4 10 24 0 57 45 60 83 1 5 5 5 11 2 6 -3 7 1 4 9 -4 10 -1 16 7 16 11 0 11
3 -1 10 -11 7 -11 10 -2 10 8 0 10 5 6 12 -5 7 -2 9 7 6 12 -5 14 1 11 24 -3
22 -1 29 7 23 8 -5 11 -1 9 11 -2 12 2 18 10 16 8 -1 11 2 7 8 -4 6 -1 18 7
27 11 14 11 16 -2 8 -13 -8 -13 -7 -1 8 8 10 11 20 8 24 -4 3 -2 14 4 24 6 13
6 19 -1 19 -5 0 -10 5 -10 11 0 5 5 7 12 3 8 -5 9 -2 5 9 -3 10 -2 17 4 17 6
0 7 5 4 10 -3 6 -1 10 5 10 7 0 10 7 6 15 -3 8 2 21 10 30 9 8 12 15 8 15 -3
0 -1 6 5 13 6 8 8 17 4 20 -3 4 -1 7 6 7 8 0 11 7 7 15 -3 8 0 15 7 15 8 0 7
4 -3 10 -13 9 -13 12 3 21 9 6 15 15 11 20 -3 5 0 17 8 26 11 14 11 16 -2 8
-13 -8 -13 -7 -1 8 9 11 10 17 2 17 -6 0 -11 5 -11 11 0 5 4 8 8 5 5 -3 9 15
9 40 0 24 -3 47 -8 50 -5 3 -2 16 7 30 9 13 13 24 9 24 -4 0 -3 6 4 13 8 10 7
17 -2 27 -7 8 -7 10 -1 7 7 -4 12 3 12 19 0 15 6 30 13 35 8 5 9 9 4 9 -6 0
-11 9 -12 20 -1 11 3 20 9 20 7 0 7 4 -1 13 -7 10 -7 17 0 24 13 13 8 54 -6
53 -5 0 -10 -6 -11 -13 -1 -31 -17 -77 -25 -77 -6 0 -7 5 -4 10 4 6 8 25 11
43 2 18 6 45 10 61 l6 28 12 -23 c13 -27 33 -36 33 -14 0 8 -3 15 -7 15 -9 0
-6 32 4 48 4 7 2 12 -5 12 -8 0 -8 4 1 15 9 11 9 15 1 15 -9 0 -9 5 -1 20 8
14 8 20 0 20 -7 0 -8 6 0 19 7 14 6 21 -3 24 -9 4 -8 8 3 16 13 10 13 12 1 20
-12 8 -12 12 -2 25 11 12 11 16 1 16 -10 0 -10 3 0 15 7 8 9 15 4 15 -5 0 -10
19 -12 43 -4 56 -6 70 -15 85 -5 7 -3 12 4 12 7 0 4 7 -7 15 -11 8 -14 15 -6
15 6 0 12 5 12 11 0 5 -3 8 -7 6 -5 -3 -8 24 -8 59 1 35 -3 64 -8 64 -5 0 -7
6 -4 14 3 7 0 19 -6 26 -9 10 -9 11 3 5 9 -5 7 1 -5 15 -12 14 -14 20 -5 15
13 -8 13 -6 2 8 -8 9 -11 21 -7 27 3 5 1 10 -5 10 -6 0 -9 4 -5 9 3 5 1 12 -4
16 -7 4 -7 15 -1 31 7 16 7 23 0 19 -6 -4 -8 6 -6 25 2 20 -1 33 -10 37 -8 3
-14 9 -14 15 0 5 6 6 12 2 7 -5 3 5 -10 20 -12 16 -19 33 -15 39 4 6 -4 8 -23
3 l-29 -6 25 15 c14 8 20 14 13 15 -6 0 -10 8 -8 18 1 9 -2 27 -6 40 -5 12 -5
22 -1 22 4 0 7 13 7 29 0 16 -4 29 -10 28 -5 -1 -9 8 -9 21 1 12 -3 22 -7 22
-5 0 -9 5 -9 11 0 5 6 7 13 4 6 -4 5 -1 -3 7 -13 12 -19 27 -22 66 -1 6 -5 12
-10 12 -5 0 -7 4 -4 9 3 4 -1 17 -9 27 -8 10 -15 29 -15 42 0 12 -6 22 -12 22
-9 0 -8 4 2 10 13 8 13 10 -2 10 -11 0 -15 5 -12 15 4 8 1 15 -5 15 -6 0 -11
9 -11 19 0 11 -7 27 -16 35 -12 12 -12 16 -2 16 9 1 8 5 -4 13 -9 8 -18 25
-20 40 -2 15 -14 36 -25 47 -12 10 -24 28 -28 40 -3 11 -12 20 -18 21 -7 0 -3
4 8 9 18 8 18 9 2 9 -10 1 -15 6 -12 11 3 6 2 10 -4 10 -5 0 -8 9 -6 20 2 11
-1 19 -8 17 -7 -1 -11 4 -9 11 1 8 -2 11 -8 7 -5 -3 -10 1 -10 9 0 9 -5 16
-11 16 -5 0 -7 5 -4 10 3 6 1 10 -4 10 -6 0 -10 3 -9 8 3 17 -15 61 -24 56 -5
-3 -9 0 -7 7 4 33 -1 50 -13 43 -8 -5 -7 0 2 11 8 10 10 16 3 12 -8 -5 -18 3
-27 22 -12 23 -13 31 -3 34 9 4 9 6 -1 6 -14 1 -43 26 -42 36 1 21 -1 25 -10
20 -10 -6 -14 7 -11 34 2 7 -2 10 -8 6 -7 -3 -11 2 -11 14 0 11 -5 23 -10 26
-6 4 -8 10 -5 15 3 5 0 12 -6 16 -8 5 -9 3 -4 -7 6 -10 5 -11 -4 -3 -7 6 -13
20 -14 31 -1 15 -6 19 -22 15 -16 -4 -18 -2 -8 8 10 11 9 16 -5 27 -12 10 -12
12 -2 8 10 -4 9 -2 -2 8 -10 8 -15 17 -11 20 3 4 -1 7 -10 7 -10 0 -17 5 -17
11 0 5 6 7 13 3 8 -5 8 -2 -2 9 -7 9 -9 17 -3 17 5 0 15 -7 22 -15 7 -8 16
-12 21 -9 5 3 9 0 9 -6 0 -6 5 -8 10 -5 6 3 10 -1 10 -10 0 -9 4 -14 9 -11 4
3 19 -3 31 -14 26 -23 34 -25 24 -7 -6 9 -5 9 8 0 8 -7 18 -10 21 -6 4 3 7 -1
7 -11 0 -9 5 -14 10 -11 6 3 10 1 10 -4 0 -6 6 -10 13 -8 6 1 11 -4 9 -11 -1
-8 2 -11 8 -7 5 3 10 2 10 -4 0 -6 7 -7 17 -4 11 4 14 3 9 -5 -5 -8 2 -12 19
-12 18 0 24 -4 19 -12 -5 -9 -2 -9 9 1 9 7 17 9 17 4 0 -5 16 -15 35 -23 19
-7 32 -17 29 -22 -3 -5 0 -7 8 -6 7 2 12 -3 10 -11 -3 -12 0 -12 12 -1 11 8
16 9 16 1 0 -6 5 -11 11 -11 5 0 7 6 4 13 -4 6 1 3 9 -7 12 -15 16 -16 16 -5
1 11 4 10 14 -3 7 -10 21 -18 30 -18 9 0 16 -5 16 -11 0 -5 5 -7 10 -4 6 3 10
-2 11 -12 0 -11 3 -13 6 -5 4 10 8 10 21 0 8 -7 17 -12 19 -10 1 1 15 2 29 2
17 0 23 -4 18 -12 -6 -10 -5 -10 8 -1 8 7 18 10 21 6 4 -3 24 -8 45 -10 20 -2
39 -8 40 -13 2 -6 12 -10 23 -10 11 0 33 -10 49 -21 16 -12 36 -19 44 -16 9 4
16 2 16 -2 0 -5 9 -7 20 -4 13 3 20 0 20 -8 0 -11 2 -11 10 1 6 10 10 11 10 3
0 -7 11 -13 25 -13 14 0 25 -6 25 -12 0 -9 4 -8 10 2 15 23 13 26 -22 38 l-33
11 35 -6 c19 -3 53 -11 75 -18 l40 -13 -39 2 c-28 1 -39 -3 -41 -14 -2 -12 5
-15 31 -12 22 3 34 0 34 -8 0 -7 8 -10 20 -7 11 3 20 2 20 -1 0 -4 25 -6 55
-5 40 1 53 -2 48 -10 -4 -7 2 -5 12 3 10 8 16 10 12 4 -4 -7 0 -15 9 -18 10
-4 13 -2 8 7 -5 9 -4 9 7 0 7 -7 17 -13 22 -13 4 0 5 6 1 13 -6 8 -3 8 9 -1 9
-8 21 -11 27 -7 6 4 18 1 27 -7 9 -7 14 -8 10 -2 -4 8 7 10 36 9 23 -1 42 -3
42 -5 0 -1 41 -4 91 -5 51 -1 98 -6 104 -10 8 -5 11 -4 7 2 -4 6 6 10 23 9 17
-1 30 -5 30 -11 0 -5 7 -1 15 9 14 18 20 15 16 -8 -1 -5 4 -4 12 2 8 7 18 8
22 4 5 -4 5 -1 1 6 -4 6 -2 12 3 12 6 0 11 -5 11 -10 0 -6 15 -3 33 6 29 16
31 16 18 1 -8 -10 -9 -17 -3 -17 6 0 14 5 17 10 4 6 11 7 17 4 7 -4 8 -2 4 5
-5 8 0 10 18 7 15 -3 24 -1 21 5 -4 5 -2 9 4 9 5 0 17 3 27 7 11 4 15 3 11 -4
-4 -6 10 -2 31 8 20 11 42 17 49 14 7 -2 13 2 13 10 0 7 5 17 12 21 8 5 9 1 5
-12 -6 -17 -6 -17 5 -3 7 9 19 14 26 12 6 -3 12 0 12 7 0 6 4 9 9 5 5 -3 12
-1 16 4 3 5 14 8 25 6 11 -2 19 1 17 8 -1 7 8 12 20 11 17 0 20 2 12 12 -8 10
-6 12 10 9 12 -2 21 0 21 6 0 5 9 9 20 9 11 0 20 4 20 10 0 5 3 9 8 8 13 -4
72 36 72 50 0 7 5 10 10 7 6 -3 13 1 16 10 5 13 9 13 22 3 9 -7 13 -8 10 -3
-8 14 14 32 35 29 9 -1 15 1 12 6 -5 8 24 25 37 22 5 -1 7 3 5 10 -1 7 3 12 8
13 18 1 35 16 30 26 -4 5 1 12 9 15 9 3 13 10 10 15 -3 5 2 9 11 9 9 0 13 5
10 10 -3 6 -1 10 4 10 6 0 11 7 11 15 0 8 6 15 13 15 16 0 57 64 57 89 0 11 9
23 21 26 17 6 18 9 7 23 -11 13 -10 15 5 9 15 -6 16 -4 7 13 -8 16 -8 20 2 18
7 -2 12 3 11 10 -2 6 2 12 8 12 5 0 7 5 4 10 -4 6 -1 17 5 25 10 12 10 15 -1
15 -12 0 -12 2 -1 9 8 5 15 20 15 34 1 14 6 23 10 20 5 -3 7 3 5 13 -2 12 2
18 11 16 11 -2 12 0 3 11 -7 8 -9 17 -5 21 4 3 8 16 10 27 2 14 -1 18 -9 13
-7 -4 -3 3 10 15 12 12 22 27 22 34 0 7 -4 6 -10 -3 -5 -8 -10 -11 -10 -6 0 5
8 18 18 29 10 12 11 17 3 12 -11 -6 -13 -3 -9 13 4 12 3 24 -2 27 -4 2 -7 16
-7 31 0 14 -4 29 -9 33 -5 3 -9 12 -10 19 -2 28 -5 32 -19 32 -9 0 -12 6 -8
17 5 12 3 14 -7 8 -10 -6 -12 -4 -7 8 3 9 2 19 -4 22 -5 4 -7 11 -4 16 4 5 1
9 -5 9 -6 0 -8 5 -5 10 3 6 -1 10 -9 10 -9 0 -15 3 -14 8 5 17 -15 52 -29 52
-13 0 -14 2 -2 17 10 11 10 14 2 9 -12 -7 -18 5 -14 27 1 5 -3 6 -9 2 -5 -3
-10 1 -10 9 0 9 -7 16 -15 16 -8 0 -21 14 -30 30 -13 26 -23 33 -45 32 -3 0
-11 6 -18 14 -7 8 -10 14 -6 14 4 0 -5 11 -20 25 -15 14 -30 25 -34 25 -4 0
-13 9 -20 20 -7 11 -21 20 -33 20 -11 0 -17 5 -14 10 3 6 -1 10 -9 10 -9 0
-16 7 -16 16 0 8 -5 12 -10 9 -5 -3 -10 -1 -10 5 0 6 -5 8 -10 5 -5 -3 -10 1
-10 10 0 9 -4 14 -9 10 -5 -3 -12 -1 -16 5 -4 6 -10 8 -15 5 -5 -3 -11 3 -15
14 -4 13 -13 18 -25 16 -11 -2 -20 1 -20 6 0 6 -5 7 -10 4 -5 -3 -10 -1 -10 6
0 7 -3 9 -7 6 -3 -4 -17 0 -31 9 -18 12 -22 12 -17 3 4 -8 -3 -3 -15 11 -12
14 -19 19 -15 13 3 -7 2 -13 -3 -13 -6 0 -12 7 -16 15 -3 8 -12 12 -21 9 -10
-4 -15 0 -15 12 0 15 -2 16 -9 5 -7 -11 -9 -11 -14 0 -4 9 -6 10 -6 2 -1 -7
-8 -10 -16 -7 -8 4 -12 11 -8 18 5 7 2 7 -8 -1 -9 -7 -20 -8 -29 -3 -8 5 -18
6 -22 4 -4 -3 -8 0 -8 6 0 6 -5 8 -10 5 -6 -4 -17 -2 -25 5 -7 6 -19 10 -27 9
-29 -4 -59 2 -54 10 3 4 -6 7 -19 5 -14 -1 -25 3 -25 9 0 5 -3 7 -6 4 -4 -3
-16 -2 -27 4 -15 9 -18 8 -11 -3 6 -11 5 -11 -9 1 -14 11 -17 11 -17 0 -1 -10
-4 -9 -11 3 -7 13 -15 15 -32 9 -12 -4 -28 -6 -36 -3 -9 3 -11 0 -6 -9 5 -8 0
-6 -12 4 -11 9 -22 15 -25 12 -10 -10 -103 -12 -115 -3 -7 6 -14 4 -19 -3 -5
-8 -3 -9 6 -4 8 5 11 4 6 -3 -4 -6 -13 -9 -21 -6 -8 4 -12 10 -9 15 3 5 0 9
-5 9 -6 0 -11 -4 -11 -10 0 -5 -7 -7 -15 -4 -9 4 -15 0 -15 -7 0 -11 -2 -12
-9 -1 -4 7 -12 12 -17 11 -5 -1 -11 0 -14 1 -17 6 -39 7 -36 1 6 -10 -66 -7
-82 3 -8 4 -10 2 -6 -7 5 -14 -29 -18 -42 -4 -4 4 -13 2 -21 -4 -10 -9 -17 -8
-30 2 -14 12 -16 12 -8 0 6 -11 5 -12 -6 -5 -21 12 -59 13 -59 0 0 -6 -5 -4
-10 4 -5 8 -10 10 -10 4 0 -13 -79 -13 -99 0 -9 6 -12 5 -8 -1 4 -6 -4 -10
-18 -10 -14 0 -22 4 -18 10 4 6 1 7 -8 1 -8 -5 -25 -10 -39 -10 -14 -1 -34 -5
-44 -9 -15 -7 -17 -5 -11 6 5 8 -1 5 -13 -5 -12 -11 -22 -14 -22 -8 0 11 -45
10 -56 -1 -3 -3 -18 -1 -32 4 -21 8 -23 8 -13 -5 11 -13 9 -14 -16 -8 -25 7
-105 7 -158 0 -11 -2 -23 -7 -27 -12 -4 -6 -12 -5 -21 2 -7 7 -16 9 -19 7 -3
-3 -17 -1 -32 4 -18 8 -26 7 -26 0 0 -8 -4 -8 -14 0 -11 9 -16 9 -22 0 -5 -9
-10 -7 -20 5 -15 21 -24 22 -35 4 -5 -7 -9 -8 -9 -2 0 6 -12 12 -27 12 -39 2
-56 6 -72 16 -10 6 -12 5 -7 -2 4 -7 2 -12 -3 -12 -6 0 -11 5 -11 10 0 6 -5
10 -11 10 -5 0 -7 -4 -4 -10 3 -6 -1 -7 -9 -4 -9 3 -13 10 -10 15 7 12 -29 -2
-38 -15 -5 -8 -8 -7 -8 1 0 8 -12 12 -32 10 -18 -2 -39 1 -47 7 -11 8 -13 8
-7 -1 9 -16 -16 -17 -31 -2 -7 7 -15 5 -27 -6 -9 -9 -16 -12 -16 -6 0 6 -14 9
-32 8 -18 -2 -39 1 -47 7 -11 8 -13 8 -7 -1 4 -8 2 -13 -8 -13 -8 0 -18 5 -21
11 -5 7 -15 4 -32 -6 -14 -10 -22 -12 -19 -6 5 7 -4 10 -26 8 -18 -2 -38 0
-45 5 -7 6 -14 4 -19 -3 -5 -8 -3 -9 6 -4 9 6 11 4 6 -4 -6 -9 -12 -8 -26 4
-16 14 -19 14 -33 1 -13 -14 -16 -14 -21 1 -5 12 -10 13 -18 5 -8 -8 -15 -9
-25 -1 -10 9 -13 7 -13 -7 0 -14 -3 -15 -8 -6 -5 7 -16 10 -24 7 -9 -4 -19 -1
-23 5 -5 8 -14 6 -32 -5 -14 -10 -22 -12 -19 -6 9 14 -44 11 -63 -3 -12 -9
-13 -7 -8 9 7 20 7 20 -8 1 -8 -11 -15 -15 -15 -9 0 14 -62 12 -72 -2 -5 -6
-8 -5 -8 4 0 11 -3 11 -15 1 -12 -10 -18 -10 -32 1 -11 10 -14 10 -9 2 5 -9 1
-13 -11 -13 -11 0 -25 6 -32 13 -11 10 -13 10 -7 0 4 -7 2 -13 -3 -13 -6 0
-11 5 -11 11 0 8 -6 7 -17 -2 -12 -10 -15 -10 -9 -1 6 10 -1 12 -28 9 -21 -3
-36 0 -36 6 0 6 -6 3 -13 -7 -12 -16 -14 -16 -26 -2 -10 11 -18 13 -31 6 -11
-6 -21 -6 -24 -1 -3 5 -15 11 -26 14 -13 3 -18 1 -13 -6 4 -7 1 -7 -9 1 -13
10 -17 10 -21 0 -4 -9 -6 -9 -6 2 -1 10 -11 15 -33 14 -18 0 -39 5 -47 10 -11
8 -13 8 -8 -1 5 -7 1 -10 -10 -8 -10 2 -19 4 -20 5 -4 3 -37 7 -69 9 -14 0
-23 5 -20 10 4 5 -8 7 -25 4 -23 -3 -29 -1 -24 8 6 8 4 10 -6 4 -18 -12 -49
-14 -43 -3 3 4 -5 6 -18 4 -13 -2 -29 2 -37 8 -11 8 -13 8 -7 -1 10 -17 -9
-16 -23 1 -6 7 -24 12 -41 10 -17 -2 -30 0 -30 5 0 5 -7 12 -16 15 -10 4 -13
2 -8 -7 4 -6 -3 -3 -16 8 -13 11 -20 15 -17 8 5 -8 1 -8 -18 0 -14 7 -25 17
-25 22 0 6 -5 3 -10 -5 -6 -10 -10 -11 -10 -2 0 7 -13 12 -30 12 -17 0 -30 5
-30 13 0 8 -4 7 -10 -3 -8 -13 -10 -13 -10 1 0 10 -8 15 -22 14 -13 -1 -29 4
-36 12 -8 7 -18 10 -24 7 -6 -4 -13 -2 -17 4 -4 6 -23 12 -44 14 -20 1 -37 5
-37 9 0 3 -11 7 -25 7 -13 0 -23 -4 -20 -8 2 -3 -2 -7 -10 -7 -8 0 -12 4 -9 9
5 8 -10 12 -35 9 -7 -2 -10 2 -6 8 4 7 0 8 -11 4 -10 -4 -15 -2 -11 3 3 5 -3
10 -14 10 -10 0 -19 -6 -19 -14 0 -10 -4 -9 -16 3 -12 12 -19 13 -24 5 -5 -8
-10 -9 -14 -2 -3 6 -17 9 -31 8 -13 -2 -22 1 -19 5 5 9 -17 13 -43 10 -7 -1
-13 2 -13 7 0 6 -7 13 -16 16 -10 4 -13 2 -8 -7 4 -6 -2 -4 -13 6 -11 9 -23
14 -27 10 -9 -10 -56 -11 -56 -3 0 4 -22 6 -48 6 -27 1 -54 4 -62 9 -9 5 -11
4 -6 -3 4 -7 3 -12 -3 -12 -5 0 -12 6 -14 13 -4 9 -6 8 -6 -2 -1 -11 -4 -11
-16 -1 -9 7 -18 10 -22 7 -3 -4 -12 -2 -19 4 -8 7 -14 7 -19 -1 -5 -8 -11 -8
-21 1 -11 9 -14 9 -14 0 0 -7 -5 -9 -10 -6 -6 4 -8 10 -6 14 6 9 -31 7 -40 -2
-10 -10 -26 -9 -20 1 3 4 -8 7 -25 6 -16 -1 -29 2 -29 7 0 5 -5 9 -11 9 -5 0
-8 -4 -5 -9 7 -11 -27 -9 -35 1 -3 5 -9 4 -15 -1z m84 -36 c15 -4 56 -9 92
-11 36 -2 115 -8 175 -14 61 -6 117 -10 125 -11 62 -1 99 -11 93 -25 -3 -9 -9
-11 -17 -6 -6 5 -23 9 -38 8 -16 -1 -28 3 -28 9 0 5 -5 3 -10 -5 -7 -11 -10
-11 -10 -2 0 7 -4 10 -10 7 -5 -3 -27 -2 -47 4 -21 5 -81 12 -133 16 -52 4
-120 9 -150 12 -30 3 -74 5 -97 6 -25 0 -43 5 -43 11 0 12 53 13 98 1z m-266
-13 c4 -4 -20 -7 -54 -6 -33 0 -81 -3 -105 -6 -24 -4 -40 -3 -36 1 5 5 34 10
66 11 31 2 57 6 57 11 0 8 62 -1 72 -11z m155 4 c3 -3 -11 -6 -33 -7 -21 0
-54 -2 -71 -4 -29 -3 -41 4 -29 16 7 7 126 3 133 -5z m-380 -22 c-4 -4 -40 -9
-80 -10 -39 -1 -72 -3 -72 -4 0 -1 -25 -3 -55 -4 -64 -3 -82 -7 -92 -21 -5 -6
-8 -5 -8 3 0 9 -5 10 -19 3 -10 -6 -21 -8 -23 -6 -3 3 -24 -2 -48 -10 -23 -8
-69 -15 -102 -15 -33 0 -88 -7 -122 -16 -58 -16 -96 -24 -123 -26 -7 -1 -13
-6 -13 -12 0 -6 -5 -4 -10 4 -6 10 -10 11 -10 3 0 -7 -9 -13 -19 -13 -11 0
-22 -4 -25 -9 -5 -8 -64 -25 -78 -22 -5 0 -8 -3 -8 -7 0 -5 -10 -8 -22 -7 -13
1 -28 -2 -34 -6 -6 -5 -28 -10 -50 -11 -21 -2 -43 -7 -47 -13 -5 -6 -7 -4 -5
4 2 8 13 16 24 17 50 7 59 10 65 17 3 5 30 12 60 16 30 4 65 14 79 21 26 15
42 20 75 23 11 2 25 6 32 10 6 4 33 10 60 13 26 4 57 11 68 17 11 6 53 10 92
9 41 -1 73 3 73 8 0 5 6 7 14 4 8 -3 25 1 38 9 13 9 41 14 66 13 23 -2 42 1
42 5 0 4 10 9 23 11 43 8 261 9 254 2z m1036 -40 c9 -4 17 -11 17 -16 0 -6 -8
-7 -17 -3 -10 4 -26 10 -35 12 -10 3 -15 9 -12 15 3 5 11 7 17 4 7 -4 20 -9
30 -12z m145 -18 c12 -4 22 -12 22 -17 0 -12 -17 -12 -25 1 -4 6 -14 10 -23 9
-39 -3 -93 2 -89 9 6 9 84 7 115 -2z m170 -36 c2 -5 9 -7 17 -4 7 3 16 0 20
-5 3 -6 11 -8 17 -5 6 4 8 2 5 -3 -6 -9 126 -52 171 -55 6 -1 12 -4 12 -8 0
-4 7 -7 15 -8 8 -1 22 -3 30 -4 18 -2 9 -18 -11 -18 -8 0 -14 4 -14 8 0 5 -6
9 -12 10 -45 3 -64 7 -68 12 -6 6 -185 64 -240 78 -19 5 -41 7 -47 5 -7 -3
-13 1 -13 7 0 14 113 4 118 -10z m-1408 -36 c0 -8 -19 -13 -24 -6 -3 5 1 9 9
9 8 0 15 -2 15 -3z m50 2 c0 -2 -9 -6 -20 -9 -11 -3 -20 -1 -20 4 0 5 9 9 20
9 11 0 20 -2 20 -4z m-1090 -65 c0 -9 -152 -51 -183 -51 -15 0 -27 -3 -27 -7
0 -5 -15 -8 -32 -8 -18 1 -51 -7 -73 -17 -50 -22 -77 -24 -49 -3 10 8 29 15
40 15 12 0 27 7 34 15 7 8 26 14 44 14 57 -1 136 12 178 30 43 18 68 22 68 12z
m2790 -11 c0 -5 -5 -10 -11 -10 -5 0 -7 5 -4 10 3 6 8 10 11 10 2 0 4 -4 4
-10z m50 -19 c0 -5 -9 -7 -20 -4 -11 3 -20 7 -20 9 0 2 9 4 20 4 11 0 20 -4
20 -9z m145 -15 c11 -2 27 -4 36 -5 9 0 20 -8 23 -17 4 -10 2 -13 -6 -7 -7 4
-19 8 -28 9 -8 1 -37 5 -65 9 -27 5 -60 8 -72 9 -13 0 -23 4 -23 9 0 9 57 5
135 -7z m123 -29 c9 -3 3 -4 -14 -3 -27 1 -30 3 -20 19 9 14 12 15 14 3 2 -8
11 -17 20 -19z m66 -2 c2 -7 -5 -11 -17 -10 -11 1 -22 6 -24 11 -5 14 36 12
41 -1z m66 -11 c0 -2 -11 -4 -25 -4 -14 0 -25 4 -25 9 0 4 11 6 25 3 14 -2 25
-6 25 -8z m43 -11 c-7 -2 -19 -2 -25 0 -7 3 -2 5 12 5 14 0 19 -2 13 -5z
m-3718 -17 c-27 -7 -60 -11 -73 -9 -13 2 -21 0 -18 -5 3 -5 -1 -9 -9 -9 -8 0
-12 4 -9 9 3 4 0 8 -5 8 -6 0 -11 -4 -11 -10 0 -5 -6 -7 -14 -4 -8 3 -17 1
-20 -5 -4 -6 -13 -8 -21 -4 -8 3 -15 0 -15 -6 0 -6 -8 -11 -17 -11 -14 0 -12
4 7 17 29 21 39 23 108 28 30 2 56 6 60 9 3 3 24 6 46 5 l41 -1 -50 -12z
m3933 -5 c3 -9 0 -11 -9 -6 -7 5 -49 10 -93 12 -44 2 -83 6 -85 9 -3 3 37 3
89 2 69 -2 95 -7 98 -17z m1089 2 c3 -7 18 -10 44 -7 28 3 39 1 39 -8 0 -8 -9
-14 -20 -14 -11 0 -20 4 -20 9 0 4 -4 5 -10 2 -5 -3 -26 -2 -45 4 -26 7 -35 6
-35 -2 0 -9 -2 -9 -8 0 -4 7 -23 12 -42 12 -19 0 -43 0 -52 1 -10 0 -24 0 -30
0 -326 6 -607 5 -620 -2 -11 -5 -18 -5 -18 0 0 9 -89 6 -98 -2 -2 -3 -15 -1
-28 4 -16 6 -24 6 -24 -1 0 -6 -5 -7 -10 -4 -35 22 36 25 487 23 364 -2 487
-6 490 -15z m1561 -1 c2 -6 7 -10 12 -7 8 5 80 -22 80 -30 0 -7 -42 4 -55 15
-7 6 -15 7 -17 2 -1 -5 -19 -2 -38 6 -40 17 -153 24 -186 12 -12 -5 -25 -6
-28 -3 -11 11 -201 12 -213 1 -7 -6 -13 -7 -13 -2 0 5 -18 10 -40 10 -23 1
-40 -4 -40 -10 0 -6 -5 -4 -10 4 -5 8 -10 10 -10 4 0 -8 -27 -11 -80 -11 -52
1 -80 5 -80 12 0 17 712 15 718 -3z m-2558 -1 c0 -6 -10 -8 -22 -6 -12 3 -28
-1 -37 -8 -10 -8 -13 -8 -8 0 4 6 1 14 -5 16 -7 3 6 6 30 6 23 1 42 -3 42 -8z
m1822 1 c-7 -5 -33 -8 -57 -7 -26 0 -45 -4 -45 -9 0 -6 -5 -4 -10 4 -5 8 -10
11 -10 5 0 -5 -18 -10 -40 -10 -22 0 -40 4 -40 10 0 5 -5 4 -11 -2 -6 -6 -17
-9 -24 -7 -7 3 -16 1 -19 -5 -4 -6 -18 -6 -36 -1 -17 5 -30 5 -30 0 0 -5 -7
-7 -15 -4 -29 11 -3 24 40 20 24 -2 49 1 57 5 7 5 67 9 133 9 66 0 114 -4 107
-8z m-394 -14 c-3 -7 -19 -13 -38 -14 -22 -1 -28 1 -19 7 8 5 22 6 32 3 9 -3
17 -1 17 5 0 6 3 11 6 11 3 0 4 -6 2 -12z m-254 -7 c3 -4 -9 -8 -25 -9 -17 -1
-28 1 -25 6 6 10 44 13 50 3z m163 -5 c4 -5 -1 -7 -13 -4 -12 3 -28 1 -37 -4
-12 -6 -15 -5 -11 5 5 15 48 17 61 3z m118 4 c3 -5 1 -10 -4 -10 -6 0 -11 5
-11 10 0 6 2 10 4 10 3 0 8 -4 11 -10z m-5715 -17 c0 -9 -2 -14 -5 -11 -3 3
-43 -2 -88 -11 -45 -10 -94 -16 -109 -16 -16 1 -28 -2 -28 -7 0 -5 -4 -6 -10
-3 -24 15 -4 22 77 29 48 3 90 10 93 14 3 4 15 7 28 6 12 -1 25 3 28 7 8 14
14 11 14 -8z m6960 -7 c0 -2 -9 -2 -20 1 -11 3 -20 9 -20 15 0 5 9 4 20 -2 11
-6 20 -12 20 -14z m35 4 c3 -5 -1 -10 -10 -10 -9 0 -13 5 -10 10 3 6 8 10 10
10 2 0 7 -4 10 -10z m123 -31 c12 -5 22 -13 22 -19 0 -6 6 -10 13 -8 6 1 26
-6 44 -15 18 -9 38 -17 46 -17 8 0 31 -11 51 -25 20 -13 36 -22 36 -19 0 2 19
-14 41 -36 23 -22 46 -42 52 -43 6 -1 18 -9 28 -17 46 -39 54 -45 59 -42 3 1
6 -7 8 -18 2 -13 15 -26 31 -31 16 -6 33 -21 39 -35 7 -13 23 -29 37 -34 15
-6 23 -14 20 -20 -3 -5 -2 -10 2 -10 5 0 14 -14 20 -31 9 -22 17 -30 28 -25
13 4 14 2 5 -14 -8 -14 -8 -20 0 -20 6 0 8 -5 4 -12 -6 -9 -9 -9 -12 0 -2 6
-2 13 0 14 3 3 -8 18 -40 53 -7 8 -11 15 -7 15 6 0 -71 78 -111 111 -10 10
-29 29 -41 44 -13 15 -23 23 -23 18 0 -4 -4 -3 -8 2 -4 6 -27 26 -52 45 -25
19 -53 43 -62 54 -10 10 -18 15 -18 11 0 -4 -9 2 -19 14 -10 12 -23 21 -27 19
-5 -1 -34 11 -64 27 -30 16 -59 28 -63 27 -4 -1 -21 5 -38 13 -16 9 -35 13
-42 9 -7 -4 -8 -3 -4 2 5 5 -7 14 -30 21 l-38 13 45 -6 c25 -4 55 -10 68 -15z
m-8628 -7 c0 -4 14 -8 30 -7 17 0 30 3 30 6 0 3 14 6 30 7 17 0 30 -3 30 -7 0
-5 14 -7 30 -5 17 2 30 -1 30 -6 0 -15 -21 -23 -32 -12 -8 8 -17 8 -31 1 -11
-6 -17 -7 -13 -1 3 5 -17 9 -52 9 -31 0 -70 1 -87 3 -16 1 -36 1 -44 -1 -7 -2
-16 2 -18 9 -3 8 10 12 46 12 28 0 51 -4 51 -8z m294 1 c10 -11 66 -10 66 0 0
5 28 6 63 3 113 -9 220 -16 325 -18 56 -2 102 -6 102 -10 0 -4 -30 -7 -67 -7
-38 0 -72 0 -78 -1 -30 -6 -95 1 -90 10 7 11 -8 14 -18 3 -9 -8 -67 -10 -67
-2 0 10 -45 5 -52 -6 -5 -6 -8 -6 -8 1 0 7 -16 11 -40 10 -22 0 -40 4 -40 9 0
6 -3 6 -8 0 -4 -6 -36 -10 -72 -10 -36 0 -69 -1 -75 -4 -20 -10 -45 -7 -45 5
0 9 13 12 40 11 22 -2 40 1 40 5 0 10 14 10 24 1z m808 -8 c5 -7 8 -6 8 2 0 7
24 11 70 12 41 0 70 -4 70 -10 0 -5 -27 -9 -62 -9 -69 0 -208 -7 -250 -13 -17
-3 -28 0 -28 7 0 7 22 11 61 11 33 0 66 3 72 7 16 9 51 6 59 -7z m-1218 -4
c-13 -13 -144 -22 -144 -10 0 6 4 8 9 4 5 -3 12 -2 15 3 2 4 32 8 65 8 33 0
58 -3 55 -5z m1010 -4 c-3 -8 -11 -14 -18 -14 -8 0 -12 6 -9 14 3 7 11 13 19
13 7 0 11 -6 8 -13z m-1166 -9 c-2 -6 -14 -13 -26 -14 -14 -3 -20 1 -16 9 6
16 47 20 42 5z m-108 -44 c-30 -14 -60 -27 -65 -28 -6 -1 -25 -12 -42 -24 -17
-12 -36 -22 -42 -22 -6 0 -11 -5 -11 -12 0 -6 -3 -8 -6 -5 -4 4 -15 -3 -25
-14 -9 -11 -20 -16 -23 -10 -7 11 45 51 68 51 9 0 21 9 28 20 7 11 18 20 25
20 6 0 13 4 15 10 2 5 15 11 31 12 15 1 27 6 27 9 0 4 10 10 23 12 50 10 49 5
-3 -19z m-347 -355 c-6 -6 -9 -1 -7 13 3 33 6 36 11 14 3 -10 1 -22 -4 -27z
m1 -46 c0 -15 -5 -28 -11 -30 -11 -4 -11 26 1 45 10 17 12 15 10 -15z m9975
-77 c-1 -18 -3 -17 -12 7 -6 15 -15 27 -20 27 -4 0 -5 5 -1 12 10 15 34 -19
33 -46z m-9954 -61 c8 -71 22 -150 25 -150 1 0 4 -13 6 -30 l4 -30 -15 27
c-17 30 -32 117 -39 218 -3 49 -2 57 5 35 5 -16 11 -48 14 -70z m10004 -25
c13 -44 14 -60 3 -60 -4 0 -9 12 -10 27 -1 15 -8 30 -15 35 -6 4 -9 8 -4 8 4
0 0 12 -10 26 -17 26 -17 27 4 14 11 -8 26 -30 32 -50z m17 -124 c-4 -20 -11
-36 -15 -36 -4 0 -7 -16 -6 -35 1 -24 -3 -35 -12 -35 -10 0 -11 5 -4 19 6 10
8 21 4 24 -3 3 -2 14 1 24 4 10 6 18 5 18 -1 0 3 10 9 22 9 16 9 22 0 25 -7 3
-8 10 -4 17 15 23 29 -5 22 -43z m-9926 -178 c0 -10 4 -18 9 -18 5 0 11 -6 14
-13 3 -8 -1 -14 -9 -14 -8 0 -22 27 -35 64 -11 35 -25 61 -30 57 -7 -4 -7 12
1 46 2 10 49 -106 50 -122z m9877 12 c-1 -16 -5 -30 -9 -30 -5 0 -8 -13 -8
-29 0 -16 -7 -37 -16 -45 -8 -9 -12 -20 -9 -26 3 -5 1 -10 -4 -10 -14 0 -14
16 1 43 6 12 12 29 13 37 2 16 27 90 32 90 1 0 1 -13 0 -30z m-9805 -157 c12
-27 22 -52 22 -58 1 -5 7 -16 14 -24 7 -7 10 -16 7 -19 -7 -7 -35 30 -29 39 2
4 -6 17 -19 31 -12 13 -22 29 -23 36 -3 33 -4 34 -21 21 -16 -13 -17 -12 -4 4
21 26 30 21 53 -30z m6989 -28 c1 -23 46 -105 54 -98 4 5 5 0 2 -9 -4 -10 -3
-18 2 -18 8 0 61 -94 61 -108 0 -3 -11 9 -25 28 -14 19 -25 39 -25 46 0 7 -4
14 -8 16 -11 4 -77 121 -74 131 1 4 -3 7 -9 7 -5 0 -7 5 -4 10 3 6 1 10 -4 10
-6 0 -11 5 -11 10 0 13 40 -11 41 -25z m2769 26 c0 -5 -7 -11 -15 -15 -15 -5
-20 5 -8 17 9 10 23 9 23 -2z m-2716 -52 c37 -22 49 -43 19 -32 -18 7 -70 53
-60 53 3 0 22 -9 41 -21z m2679 -1 c-7 -28 -22 -48 -36 -48 -5 0 -3 8 5 18 8
9 18 25 21 35 9 25 16 21 10 -5z m-2536 -74 c9 -2 19 -6 22 -11 3 -5 27 -20
54 -33 26 -14 47 -29 47 -33 0 -5 4 -6 9 -2 5 3 17 -2 25 -11 9 -8 16 -13 16
-10 0 3 24 -7 53 -22 28 -14 54 -27 57 -28 3 -1 15 -5 27 -9 13 -4 20 -12 16
-18 -4 -6 4 -8 20 -5 15 3 24 1 21 -3 -3 -5 3 -9 12 -9 10 0 15 -3 12 -6 -10
-10 -86 16 -92 31 -3 8 -9 14 -13 14 -4 -1 -25 6 -47 15 -21 10 -44 15 -52 12
-8 -3 -11 0 -7 10 4 10 0 12 -11 8 -9 -4 -18 0 -22 9 -3 9 -12 13 -20 10 -8
-3 -14 0 -14 6 0 6 -22 21 -50 33 -27 12 -50 26 -50 30 0 5 -4 7 -10 3 -5 -3
-18 3 -29 14 -11 11 -32 23 -46 27 -14 3 -25 12 -25 19 0 9 13 5 40 -13 22
-14 48 -27 57 -28z m2470 -19 c-19 -19 -37 -35 -40 -35 -3 0 9 16 26 35 17 19
35 35 39 35 5 0 -6 -16 -25 -35z m-37 -49 c0 -9 -48 -53 -73 -65 -15 -8 -27
-18 -27 -23 0 -5 -4 -7 -9 -4 -4 3 -19 -3 -31 -14 -28 -24 -42 -26 -33 -5 3 9
8 14 10 11 3 -3 14 4 26 14 11 11 23 17 27 15 4 -3 18 5 32 18 13 12 27 23 31
25 4 1 7 5 6 8 0 4 5 11 13 15 13 9 28 12 28 5z m-2471 -106 c16 -15 23 -33
24 -57 0 -7 5 -13 10 -13 6 0 8 -3 5 -6 -3 -3 9 -20 27 -37 17 -18 30 -38 28
-45 -5 -13 -83 82 -83 100 0 5 -11 26 -24 47 -14 21 -22 42 -18 46 4 3 9 0 11
-7 2 -7 11 -20 20 -28z m2261 -45 c-12 -13 -27 -22 -31 -19 -5 3 -9 0 -9 -7 0
-7 -3 -9 -7 -6 -3 4 -11 0 -17 -8 -6 -7 -24 -16 -41 -20 -16 -3 -24 -2 -16 1
8 4 42 24 75 45 72 46 77 47 46 14z m-1788 6 c32 -13 61 -24 73 -27 6 -1 35
-10 65 -18 l55 -16 -49 5 c-27 3 -54 9 -60 14 -6 5 -19 7 -30 5 -19 -3 -49 11
-74 34 -16 14 -11 15 20 3z m242 -70 c11 -4 15 -10 10 -13 -5 -2 -20 1 -34 8
-26 14 -8 18 24 5z m71 -24 c11 -1 26 -6 32 -10 7 -5 23 -10 34 -12 35 -7 35
-15 1 -15 -17 0 -33 4 -37 10 -3 5 -12 7 -20 3 -8 -3 -15 1 -15 8 0 7 -3 10
-6 6 -9 -8 -33 16 -27 27 3 4 9 3 12 -3 4 -6 16 -12 26 -14z m1324 5 c-7 -10
-18 -19 -25 -20 -8 -1 -21 -3 -29 -4 -8 -1 -15 -5 -15 -10 0 -4 -7 -8 -16 -8
-14 0 -14 1 0 16 9 8 20 13 25 10 5 -3 20 3 32 14 30 25 43 25 28 2z m-109
-42 c0 -5 -5 -10 -11 -10 -5 0 -7 5 -4 10 3 6 8 10 11 10 2 0 4 -4 4 -10z
m-1882 -28 c-1 -4 8 -27 20 -52 12 -25 22 -51 22 -57 0 -7 5 -13 10 -13 6 0
10 -6 8 -13 -3 -11 35 -74 52 -87 8 -6 21 -70 15 -70 -3 0 -12 17 -20 37 -9
21 -26 48 -37 60 -12 13 -28 40 -35 61 -15 39 -16 42 -28 85 -4 15 -11 27 -15
27 -4 0 -10 9 -13 19 -3 14 -1 18 9 14 7 -3 13 -8 12 -11z m1842 4 c-6 -8 -18
-12 -26 -9 -8 3 -25 -2 -39 -11 -14 -9 -25 -14 -25 -12 0 3 -19 -1 -41 -9 -44
-16 -132 -21 -94 -6 11 5 25 6 31 4 7 -2 15 1 19 6 3 6 10 9 15 6 5 -3 21 0
37 6 34 14 38 16 83 28 50 13 54 13 40 -3z m-840 -21 c0 -5 5 -3 10 5 5 8 10
10 10 4 0 -6 12 -10 27 -8 15 1 30 -1 33 -7 4 -5 39 -11 80 -14 41 -3 76 -8
79 -10 10 -11 -130 -4 -165 8 -22 7 -62 12 -91 11 -32 -1 -54 3 -56 10 -3 8 8
12 34 11 21 0 39 -4 39 -10z m340 -41 c0 -2 -12 -4 -26 -4 -14 0 -23 4 -20 9
6 8 46 4 46 -5z m233 -1 c-13 -2 -33 -2 -45 0 -13 2 -3 4 22 4 25 0 35 -2 23
-4z m-1413 -268 c5 3 11 -8 15 -25 4 -16 10 -30 14 -30 4 0 7 -10 8 -22 1 -11
6 -24 11 -27 14 -10 22 -40 11 -46 -5 -4 -12 2 -15 12 -3 10 -13 34 -22 53 -9
19 -15 39 -14 43 1 4 -4 15 -13 23 -8 9 -14 23 -14 32 1 15 2 15 6 -1 2 -9 8
-15 13 -12z m93 -201 c6 -16 13 -31 16 -34 3 -3 7 -21 8 -40 2 -33 2 -34 -8
-10 -6 14 -12 32 -14 40 -2 8 -4 17 -5 20 -1 3 -2 8 -2 12 1 3 -5 12 -13 18
-18 15 -20 33 -3 28 6 -2 16 -17 21 -34z m57 -134 c0 -5 -4 -10 -9 -10 -6 0
-13 5 -16 10 -3 6 1 10 9 10 9 0 16 -4 16 -10z m19 -77 c7 -32 16 -62 19 -67
8 -15 8 -86 0 -86 -5 0 -9 8 -9 18 -3 34 -7 58 -18 102 -7 25 -13 52 -14 60
-1 8 -6 18 -12 22 -6 5 -4 8 5 8 11 0 20 -18 29 -57z m36 -183 c3 -5 1 -10 -4
-10 -6 0 -11 5 -11 10 0 6 2 10 4 10 3 0 8 -4 11 -10z m20 -70 c-3 -5 -2 -10
4 -10 12 0 35 -99 29 -125 -2 -11 -8 4 -12 33 -4 28 -13 52 -19 52 -6 0 -7 3
-4 7 4 3 2 12 -4 19 -10 12 -5 34 7 34 3 0 2 -4 -1 -10z m50 -192 c-1 -13 2
-31 7 -40 5 -12 5 -18 -2 -18 -5 0 -10 6 -11 13 0 6 -3 24 -5 40 -3 15 -1 27
4 27 5 0 8 -10 7 -22z m24 -85 c-1 -10 1 -25 4 -33 11 -28 14 -120 4 -120 -5
0 -4 -6 2 -14 6 -7 16 -45 21 -82 5 -38 11 -78 13 -89 2 -12 1 -30 -3 -40 -5
-13 -11 11 -16 65 -4 47 -7 88 -6 93 1 4 -2 7 -7 7 -5 0 -7 10 -3 22 3 12 1
19 -4 15 -6 -3 -11 3 -11 14 -1 10 2 19 7 19 4 0 4 16 0 36 -5 20 -7 45 -5 55
2 10 0 21 -6 24 -13 8 -11 45 2 45 5 0 9 -8 8 -17z m-1585 -230 c-3 -27 -6
-65 -7 -85 -1 -20 -5 -34 -10 -31 -4 2 -6 27 -3 54 2 27 0 49 -5 49 -5 0 -9
-7 -9 -16 0 -9 -5 -34 -11 -55 -9 -27 -16 -36 -27 -31 -10 3 -13 1 -8 -6 4 -7
2 -12 -3 -12 -16 0 -13 11 6 32 9 11 18 24 20 31 1 7 4 21 7 32 2 11 5 23 5
26 1 8 41 59 46 59 2 0 1 -21 -1 -47z m-101 -152 c-4 -3 -14 -19 -21 -34 -7
-16 -17 -25 -23 -21 -8 4 -8 9 -1 13 6 4 16 19 21 34 7 17 16 25 22 21 6 -3 7
-9 2 -13z m81 -51 c-1 -51 -9 -60 -12 -14 -2 29 3 54 11 54 1 0 2 -18 1 -40z
m-135 -43 c-9 -7 -15 -20 -13 -29 1 -10 -2 -18 -7 -18 -5 0 -9 -4 -9 -9 0 -5
-9 -29 -20 -55 -12 -25 -20 -49 -19 -52 0 -4 -6 -11 -15 -16 -9 -5 -14 -13
-11 -19 4 -5 1 -9 -4 -9 -6 0 -11 -6 -11 -13 0 -20 -37 -51 -45 -38 -3 6 1 11
9 11 9 0 15 3 14 8 -1 4 9 25 23 47 22 34 35 61 44 85 1 3 9 22 19 42 9 21 15
40 14 42 -5 7 35 46 41 40 3 -3 -1 -11 -10 -17z m1778 -19 c-3 -7 -5 -2 -5 12
0 14 2 19 5 13 2 -7 2 -19 0 -25z m-1655 -206 c2 -72 0 -132 -4 -132 -5 0 -7
69 -7 153 2 178 7 168 11 -21z m1661 143 c4 -8 3 -16 -1 -19 -4 -3 -9 4 -9 15
-2 23 3 25 10 4z m-4729 -81 c3 -8 10 -12 16 -9 5 3 10 -1 10 -10 0 -9 4 -14
9 -10 6 3 57 -42 115 -100 59 -58 106 -102 106 -98 0 3 9 -4 20 -17 11 -13 20
-20 20 -17 0 4 8 -1 18 -10 21 -21 25 -43 5 -36 -7 3 -13 11 -13 19 0 8 -4 14
-8 14 -13 0 -53 32 -126 103 -39 37 -76 67 -84 67 -7 0 -10 5 -7 10 3 6 1 10
-5 10 -6 0 -9 4 -6 9 3 4 -10 17 -29 27 -19 10 -35 21 -35 25 0 4 -9 9 -21 12
-12 3 -18 10 -14 16 9 16 22 13 29 -5z m4706 -128 c0 -34 -17 -42 -22 -11 -5
25 -1 35 14 35 4 0 8 -11 8 -24z m-10 -77 c0 -17 -4 -28 -10 -24 -5 3 -8 16
-6 28 6 28 5 27 11 27 3 0 5 -14 5 -31z m-1630 -40 c-4 -23 -7 -68 -6 -100 1
-32 -2 -59 -6 -59 -9 0 -10 109 -2 163 4 20 10 37 14 37 4 0 4 -18 0 -41z
m1620 -10 c0 -5 -4 -9 -10 -9 -5 0 -10 7 -10 16 0 8 5 12 10 9 6 -3 10 -10 10
-16z m-2017 -92 c-3 -20 -10 -37 -14 -37 -5 0 -9 -9 -9 -19 0 -11 -4 -21 -8
-23 -4 -1 -22 -36 -38 -77 -16 -41 -35 -76 -41 -78 -6 -2 -3 12 7 32 22 43 43
97 42 107 -1 3 5 12 13 18 8 7 15 21 15 31 0 11 4 19 9 19 6 0 8 9 6 20 -2 11
0 20 6 20 5 0 8 3 8 8 -2 13 1 25 6 21 2 -3 2 -22 -2 -42z m-2253 -17 c8 -12
29 -41 46 -64 17 -22 38 -54 47 -71 8 -16 32 -47 52 -67 23 -24 32 -38 22 -38
-8 0 -20 7 -27 15 -7 9 -20 13 -28 10 -12 -4 -13 -3 -3 9 10 12 9 17 -8 28
-12 7 -21 20 -21 29 0 9 -11 29 -24 44 -14 16 -23 32 -20 37 3 4 0 8 -6 8 -6
0 -14 8 -17 18 -4 9 -19 29 -35 45 -15 15 -28 30 -28 32 0 11 36 -14 50 -35z
m4270 10 c0 -5 -4 -10 -10 -10 -5 0 -10 5 -10 10 0 6 5 10 10 10 6 0 10 -4 10
-10z m-15 -80 c3 -5 1 -10 -4 -10 -6 0 -11 5 -11 10 0 6 2 10 4 10 3 0 8 -4
11 -10z m-1602 -50 c-3 -11 -7 -20 -9 -20 -2 0 -4 9 -4 20 0 11 4 20 9 20 5 0
7 -9 4 -20z m1562 -76 c-9 -24 -21 -44 -26 -44 -5 0 -3 13 5 29 9 16 12 31 9
35 -4 3 -1 6 5 6 7 0 11 3 11 8 -1 4 0 14 1 22 1 11 3 12 7 2 3 -8 -2 -33 -12
-58z m-1550 26 c3 -5 1 -10 -4 -10 -6 0 -11 5 -11 10 0 6 2 10 4 10 3 0 8 -4
11 -10z m20 -78 c2 -11 9 -30 15 -42 6 -12 9 -24 6 -27 -3 -3 -1 -14 5 -24 6
-13 6 -19 -1 -19 -5 0 -11 8 -12 18 0 9 -2 22 -2 29 -1 6 -9 19 -18 30 -9 10
-16 30 -15 45 2 30 15 24 22 -10z m1502 -17 c0 -8 -4 -15 -9 -15 -4 0 -8 -9
-8 -19 0 -11 -4 -22 -9 -26 -6 -3 -6 6 -1 24 13 47 27 65 27 36z m-28 -117
c-5 -9 -9 -21 -8 -25 1 -4 -6 -26 -16 -48 -10 -22 -18 -44 -17 -48 2 -5 -2 -6
-8 -2 -7 4 -8 11 -1 18 5 7 10 15 10 20 3 32 37 123 43 114 3 -6 2 -19 -3 -29z
m-1429 -7 c7 -14 7 -22 -2 -27 -7 -4 -8 -3 -4 4 4 7 2 12 -3 12 -6 0 -11 7
-11 15 0 20 7 19 20 -4z m25 -71 c-3 -5 -1 -11 5 -15 5 -3 10 -13 10 -20 0 -8
12 -40 27 -72 14 -32 27 -61 27 -65 1 -3 11 -18 24 -33 13 -15 20 -30 16 -33
-4 -4 -9 -1 -11 6 -3 6 -10 9 -15 6 -7 -4 -8 -2 -4 5 4 6 1 14 -7 17 -8 3 -14
13 -13 22 2 9 -3 23 -11 30 -7 7 -16 25 -20 40 -3 15 -12 33 -19 40 -7 7 -11
19 -8 27 4 8 1 15 -5 15 -6 0 -10 3 -10 8 1 4 0 9 -1 12 -1 3 -3 13 -5 23 -3
15 -1 16 11 6 7 -6 12 -15 9 -19z m-689 -80 c0 -22 -4 -40 -9 -40 -4 0 -7 -8
-6 -17 1 -10 -1 -34 -5 -53 -6 -34 -13 -118 -15 -207 -1 -24 -5 -43 -9 -43
-16 0 8 293 28 346 5 13 7 31 4 39 -4 8 -2 15 3 15 5 0 9 -18 9 -40z m2039 10
c3 -5 1 -10 -4 -10 -6 0 -11 5 -11 10 0 6 2 10 4 10 3 0 8 -4 11 -10z m-3782
-50 c-3 -11 -1 -20 4 -20 5 0 10 -7 10 -15 0 -11 -4 -12 -14 -4 -14 12 -18 41
-6 52 10 11 11 8 6 -13z m3748 -31 c-8 -23 -81 -89 -97 -89 -14 0 -54 -43 -54
-58 0 -9 -3 -12 -7 -9 -3 4 -15 -1 -26 -10 -11 -10 -18 -13 -16 -8 6 17 95 95
108 95 6 0 11 5 11 10 0 6 11 15 25 22 13 6 31 26 40 45 18 38 31 40 16 2z
m-3720 -39 c1 -5 2 -13 4 -17 1 -5 5 -21 9 -38 4 -16 10 -37 13 -45 6 -14 11
-37 17 -67 1 -7 5 -16 9 -19 11 -11 8 -34 -4 -34 -5 0 -8 4 -4 9 3 5 1 12 -5
16 -5 3 -10 15 -10 27 0 21 -31 119 -41 128 -8 8 -6 50 3 50 4 0 9 -4 9 -10z
m2568 -86 c1 6 12 -5 25 -22 13 -18 33 -41 45 -51 28 -24 29 -46 1 -31 -11 6
-20 17 -20 25 0 8 -4 15 -10 15 -5 0 -10 7 -10 15 0 8 -4 15 -9 15 -16 0 -41
30 -40 48 0 14 2 13 9 -3 5 -11 9 -16 9 -11z m922 -90 c-11 -15 -21 -23 -21
-19 0 4 -7 2 -15 -5 -8 -7 -15 -9 -15 -5 0 4 -7 2 -15 -5 -10 -9 -15 -9 -15
-1 0 10 12 15 31 13 3 -1 19 12 34 28 34 36 46 32 16 -6z m-771 -48 c19 -13
45 -26 58 -30 12 -4 20 -12 17 -17 -4 -5 -13 -5 -24 1 -10 5 -21 6 -25 3 -3
-3 -6 -1 -6 5 0 6 -17 23 -37 37 -21 14 -33 25 -28 25 6 0 26 -11 45 -24z
m676 2 c4 -6 3 -8 -4 -4 -6 3 -20 -6 -31 -20 -12 -15 -21 -24 -21 -20 0 4 -9
2 -19 -4 -13 -7 -22 -7 -26 0 -3 5 0 10 7 10 8 0 29 11 48 25 42 29 37 27 46
13z m-3322 -80 c4 -29 6 -55 5 -58 -1 -3 3 -16 10 -29 11 -19 11 -22 -1 -15
-11 7 -11 5 0 -9 8 -9 11 -21 7 -27 -3 -5 -2 -10 3 -10 5 0 8 -13 7 -30 -1
-16 0 -30 4 -30 3 0 6 -20 7 -45 1 -45 -15 -65 -18 -22 -4 69 -15 133 -26 154
-4 10 -7 39 -6 66 2 26 0 47 -4 47 -4 0 -7 14 -7 30 -1 49 12 34 19 -22z
m2763 21 c6 -6 19 -12 29 -14 11 -2 19 -4 19 -5 0 -16 247 -18 293 -2 17 6 32
7 32 3 0 -10 -70 -31 -104 -31 -14 0 -26 -6 -27 -12 0 -10 -2 -10 -6 0 -2 7
-22 12 -44 12 -24 0 -38 -4 -34 -10 3 -5 1 -10 -4 -10 -6 0 -11 5 -11 10 0 6
-9 10 -21 10 -34 0 -129 31 -129 41 0 6 -4 7 -10 4 -5 -3 -10 -1 -10 4 0 14
13 14 27 0z m441 -1 c-3 -7 -18 -14 -34 -15 -20 -1 -22 0 -6 4 12 2 22 9 22
14 0 5 5 9 11 9 6 0 9 -6 7 -12z m-1611 -23 c0 -8 -4 -12 -9 -9 -5 3 -6 10 -3
15 9 13 12 11 12 -6z m13 -154 c0 -57 -3 -101 -7 -97 -4 4 -8 56 -8 116 0 60
3 104 7 97 4 -7 8 -59 8 -116z m-1459 -84 c-10 -9 -11 -8 -5 6 3 10 9 15 12
12 3 -3 0 -11 -7 -18z m1449 -52 c0 -28 -15 -34 -24 -9 -4 10 -2 13 6 8 8 -5
9 -2 5 9 -3 10 -2 17 3 17 6 0 10 -11 10 -25z m-1545 -45 c0 -16 -3 -30 -7
-30 -5 0 -8 14 -8 30 0 17 4 30 8 30 4 0 8 -13 7 -30z m1535 0 c0 -5 -2 -10
-4 -10 -3 0 -8 5 -11 10 -3 6 -1 10 4 10 6 0 11 -4 11 -10z m-14 -45 c1 -14
-2 -25 -7 -25 -6 0 -8 -4 -5 -9 3 -5 -12 -8 -34 -7 -22 0 -39 -1 -37 -4 2 -6
-44 -83 -56 -91 -5 -3 -8 -8 -6 -10 4 -7 -65 -79 -76 -79 -6 0 -21 -10 -34
-21 -14 -13 -26 -18 -32 -12 -6 6 4 17 26 29 19 10 35 22 35 26 0 5 6 8 14 8
7 0 20 10 29 23 8 12 25 32 36 45 12 12 19 22 15 22 -3 0 0 7 7 16 7 9 14 23
16 32 1 9 7 18 13 20 5 2 8 8 5 12 -3 5 -1 11 5 15 5 3 10 1 10 -4 0 -6 11
-11 25 -11 26 0 49 34 37 55 -3 6 -1 7 3 3 5 -5 10 -19 11 -33z m-1509 -1 c-3
-4 -2 -15 3 -24 7 -13 6 -20 -5 -23 -10 -4 -13 1 -10 21 3 32 3 32 12 32 3 0
3 -3 0 -6z m109 -50 c3 -16 8 -31 12 -34 7 -5 12 -50 5 -50 -8 0 -26 56 -29
88 -3 40 5 37 12 -4z m-105 -57 c-10 -9 -11 -8 -5 6 3 10 9 15 12 12 3 -3 0
-11 -7 -18z m154 -64 c13 -16 25 -33 25 -39 0 -6 7 -17 15 -24 8 -7 15 -16 15
-20 0 -3 -7 -7 -15 -7 -8 0 -15 8 -15 17 0 9 -13 32 -30 50 -28 31 -37 50 -25
50 3 0 17 -12 30 -27z m72 -100 c-7 -7 55 -53 71 -53 5 0 15 -7 22 -15 7 -9
15 -13 17 -11 5 5 130 -59 147 -74 15 -14 -21 -5 -38 9 -9 7 -16 10 -16 6 0
-5 -8 -2 -17 6 -27 21 -61 39 -76 39 -7 0 -18 5 -25 12 -6 6 -18 13 -26 14
-16 2 -76 45 -76 54 0 8 11 20 18 20 3 0 2 -3 -1 -7z m966 -3 c-12 -5 -27 -18
-33 -29 -6 -12 -16 -21 -23 -21 -7 0 -18 -9 -25 -21 -7 -12 -16 -19 -19 -16
-2 3 -18 -7 -35 -21 -17 -15 -34 -26 -39 -24 -5 1 -9 -2 -9 -8 0 -5 -7 -7 -15
-4 -10 4 2 17 41 40 31 19 75 52 98 74 22 22 50 40 61 39 19 0 19 -1 -2 -9z
m-218 -151 c4 -5 -3 -8 -14 -6 -28 4 -34 12 -11 14 11 1 22 -2 25 -8z m-409
-16 c11 -5 72 -9 136 -9 65 1 118 -2 118 -6 0 -5 -22 -8 -50 -8 -33 0 -50 -4
-50 -12 0 -10 -2 -10 -8 0 -5 8 -27 12 -58 11 -66 -2 -154 15 -154 30 0 10 41
6 66 -6z"/>
<path d="M3700 3780 c0 -5 5 -10 11 -10 5 0 7 5 4 10 -3 6 -8 10 -11 10 -2 0
-4 -4 -4 -10z"/>
</g>
</svg>
